<svg width="128" height="128" viewBox="0 0 128 128" fill="none" xmlns="http://www.w3.org/2000/svg">
<path fill-rule="evenodd" clip-rule="evenodd" d="M15.7214 63.1243L3.93018 89.713H11.6421L13.9346 84.0778H25.7855L28.078 89.713H35.7899L23.9692 63.1243H15.7214ZM19.9094 69.3933L21.91 74.4492L23.9107 79.5057L19.9214 79.5151L15.9321 79.5253L17.9207 74.4593L19.9094 69.3933ZM72.9117 63.1243L61.1205 89.713H68.8324L71.1249 84.0778H82.9759L85.2683 89.713H92.9803L81.1595 63.1243H72.9117ZM77.0997 69.3933L79.1004 74.4492L81.101 79.5057L77.1117 79.5151L73.1224 79.5253L75.1111 74.4593L77.0997 69.3933ZM94.9973 63.0326H103.756L109.356 71.5111L115.294 63.0326H123.926L113.525 75.9199L124.6 89.8047H115.841L109.483 80.7527L103.251 89.8047H93.9024L105.188 76.0471L94.9973 63.0326Z" fill="#8C96A1"/>
<path d="M57.9435 51.7798L47.4586 62.1619L51.068 65.4499L54.4825 61.9941L54.8636 61.9947V81.8199C54.8636 84.3367 52.851 86.3629 50.3511 86.3629H46.7655C44.2656 86.3629 42.2529 84.3367 42.2529 81.8199V79.7039H35.2812V82.3391C35.2812 86.8894 38.92 90.5526 43.4397 90.5526H52.7026C57.2224 90.5526 60.8611 86.8894 60.8611 82.3391V62.0087L61.1309 62.0093L65.1196 65.45L68.2561 62.1619L57.9435 51.7798Z" fill="#8C96A1"/>
<path d="M38.7154 77.5209L49.2003 67.1388L45.5909 63.8507L42.1764 67.3066L41.7953 67.3059V47.4807C41.7953 44.9639 43.8079 42.9377 46.3079 42.9377H49.8934C52.3933 42.9377 54.406 44.9639 54.406 47.4807V49.5968H61.3777V46.9615C61.3777 42.4113 57.739 38.748 53.2192 38.748H43.9563C39.4365 38.748 35.7978 42.4113 35.7978 46.9615V67.292L35.528 67.2913L31.5393 63.8507L28.4028 67.1387L38.7154 77.5209Z" fill="#8C96A1"/>
<path fill-rule="evenodd" clip-rule="evenodd" d="M43.956 38.0996C39.4362 38.0996 35.7975 41.7628 35.7975 46.3131V66.6435L35.5277 66.6429L31.539 63.2023L28.4025 66.4903L38.7151 76.8724L49.2 66.4903L45.5906 63.2023L42.1761 66.6581L41.795 66.6575V46.8323C41.795 44.3155 43.8076 42.2893 46.3075 42.2893H49.8931C52.393 42.2893 54.4057 44.3155 54.4057 46.8323V48.9483H61.3773V46.3131C61.3773 41.7628 57.7386 38.0996 53.2189 38.0996H43.956ZM57.9434 51.1315L47.4585 61.5136L51.0679 64.8017L54.4824 61.3458L54.8635 61.3464V81.1716C54.8635 83.6884 52.8509 85.7146 50.3509 85.7146H46.7654C44.2655 85.7146 42.2528 83.6884 42.2528 81.1716V79.0556H35.2811V81.6908C35.2811 86.2411 38.9198 89.9043 43.4396 89.9043H52.7025C57.2223 89.9043 60.861 86.2411 60.861 81.6908V61.3604L61.1308 61.361L65.1195 64.8017L68.256 61.5136L57.9434 51.1315ZM94.9975 62.3842L105.187 75.399L93.9025 89.1565H103.25L109.482 80.1041L115.841 89.1565H124.6L113.525 75.2718L123.926 62.3842H115.294L109.357 70.863L103.756 62.3842H94.9975ZM15.7214 62.476L3.93018 89.0647H11.6421L13.9346 83.4295H25.7855L28.078 89.0647H35.7899L23.9692 62.476H15.7214ZM72.9119 62.476L61.1207 89.0647H68.8327L71.1251 83.4295H82.9761L85.2685 89.0647H92.9805L81.1597 62.476H72.9119ZM19.9094 68.745L21.9101 73.8009L23.9107 78.8574L19.9214 78.8669L15.9321 78.877L17.9207 73.811L19.9094 68.745ZM77.1 68.745L79.1006 73.8009L81.1013 78.8574L77.1119 78.8669L73.1226 78.877L75.1113 73.811L77.1 68.745Z" fill="url(#paint0_linear_3203_85)" stroke="#0C4C75" stroke-width="0.5"/>
<defs>
<linearGradient id="paint0_linear_3203_85" x1="52.3832" y1="37.6854" x2="52.3832" y2="89.7434" gradientUnits="userSpaceOnUse">
<stop stop-color="#70B0DF"/>
<stop offset="0.5" stop-color="#1B81C5"/>
<stop offset="1" stop-color="#4A98CE"/>
</linearGradient>
</defs>
</svg>
