<svg width="128" height="128" viewBox="0 0 128 128" fill="none" xmlns="http://www.w3.org/2000/svg">
<path d="M111.977 26.0809L71.6586 2.1435C66.8666 -0.714499 60.8933 -0.714499 56.1013 2.1435L15.775 26.0809C10.9243 29.0072 7.97103 34.2698 8.00021 39.9347V87.8014C7.97388 93.4635 10.9268 98.7224 15.775 101.647L56.0932 125.577C60.8857 128.433 66.858 128.433 71.6505 125.577L111.969 101.647C116.822 98.7229 119.779 93.46 119.752 87.7934V39.9347C119.781 34.2698 116.827 29.0072 111.977 26.0809Z" fill="white"/>
<path d="M112.206 26.1383L71.7988 2.14822C66.9962 -0.716072 61.0098 -0.716072 56.2072 2.14822L15.7922 26.1383C10.9308 29.0711 7.97096 34.3453 8.00021 40.0227V87.9948C7.97382 93.6694 10.9333 98.9398 15.7922 101.871L56.1991 125.853C61.0022 128.716 66.9877 128.716 71.7907 125.853L112.198 101.871C117.062 98.9404 120.025 93.6658 119.998 87.9867V40.0227C120.027 34.3453 117.067 29.0711 112.206 26.1383ZM57.6151 123.402L17.2081 99.4195C13.215 96.9998 10.7829 92.6638 10.7998 87.9948V40.0227C10.7813 35.3533 13.2139 31.0165 17.2081 28.598L57.6151 4.60791C61.5477 2.26179 66.4503 2.26179 70.3828 4.60791L110.757 28.598C114.086 30.614 116.356 33.9945 116.963 37.8381C115.62 34.9819 112.602 34.1971 109.083 36.2199L70.8845 59.8782C66.1188 62.6535 62.6073 65.7847 62.5992 71.5294V118.636C62.5992 122.075 63.9828 124.3 66.1188 124.955C65.4193 125.083 64.7101 125.151 63.999 125.157C61.752 125.156 59.5469 124.549 57.6151 123.402Z" fill="#2F3A3E"/>
<path d="M101.504 92.53L91.4607 98.5366C91.1917 98.6447 91.0114 98.9008 91.0005 99.1905V101.83C91.0005 102.153 91.2185 102.283 91.4849 102.129L101.681 95.9289C101.931 95.7417 102.051 95.4273 101.988 95.1215V92.8045C101.98 92.5058 101.746 92.3766 101.504 92.53Z" fill="#3AB14A"/>
<path d="M80.1315 70.4159C80.4544 70.2544 80.7209 70.4159 80.7289 70.8761L80.7612 74.3799C81.969 73.8312 83.3164 73.6677 84.6203 73.9117C84.8705 73.9763 84.9755 74.3153 84.8786 74.719L84.1117 77.7949C84.0535 78.0271 83.9335 78.2391 83.7645 78.4085C83.7051 78.4671 83.637 78.5161 83.5627 78.5538C83.4714 78.6032 83.3661 78.6203 83.264 78.6023C81.9925 78.3207 80.6616 78.5344 79.5421 79.1997C77.9053 79.937 76.8354 81.5467 76.7892 83.3413C76.7892 84.956 77.5965 85.4 80.4141 85.4484C84.1359 85.513 85.7505 87.1358 85.7909 90.8899C85.7023 94.8084 83.8955 98.4899 80.85 100.957L80.9146 104.397C80.9089 104.824 80.687 105.219 80.3253 105.446L78.2908 106.617C77.9679 106.778 77.7014 106.617 77.6934 106.165V102.782C75.9495 103.508 74.1815 103.678 73.0512 103.226C72.8413 103.145 72.7444 102.83 72.8332 102.467L73.5679 99.3588C73.6238 99.1128 73.75 98.8884 73.9312 98.7129C73.9887 98.6579 74.054 98.6116 74.125 98.5757C74.2302 98.5283 74.3507 98.5283 74.456 98.5757C75.8952 98.9659 77.4303 98.7714 78.7267 98.0347C80.5976 97.1324 81.8135 95.2667 81.8834 93.1908C81.8834 91.4469 80.9227 90.7203 78.6541 90.7042C75.7235 90.7042 73.0028 90.139 72.9462 85.8602C73.0137 82.122 74.749 78.6099 77.6772 76.2852L77.5319 72.7653C77.5306 72.332 77.7535 71.9288 78.1212 71.6996L80.1315 70.4159Z" fill="white"/>
</svg>
