<svg width="128" height="128" viewBox="0 0 128 128" fill="none" xmlns="http://www.w3.org/2000/svg">
<g clip-path="url(#clip0_3207_182)">
<path d="M112.568 26.1069L71.8769 2.12784C69.5106 0.7348 66.8107 -0.000244141 64.0601 -0.000244141C61.3095 -0.000244141 58.6095 0.7348 56.2432 2.12784L15.5698 26.1069C13.1506 27.541 11.1489 29.5762 9.76171 32.0121C8.37454 34.448 7.64967 37.2007 7.65842 39.9994V87.9916C7.64405 90.7823 8.35922 93.5288 9.73395 95.9625C11.1087 98.3962 13.0959 100.434 15.501 101.876L56.1831 125.872C58.5494 127.265 61.2493 128 63.9999 128C66.7505 128 69.4505 127.265 71.8168 125.872L112.499 101.876C114.905 100.434 116.892 98.397 118.267 95.9632C119.642 93.5293 120.357 90.7824 120.341 87.9916V39.9994C120.364 37.2161 119.66 34.4744 118.3 32.0413C116.939 29.6083 114.967 27.5667 112.576 26.1154L112.568 26.1069ZM81.051 101.039V104.487C81.0476 104.699 80.9908 104.907 80.8858 105.092C80.7808 105.277 80.6309 105.432 80.4497 105.545L78.3967 106.714C78.0703 106.885 77.7954 106.714 77.7954 106.262V102.883C76.3412 103.59 74.6781 103.751 73.1139 103.335C72.9904 103.254 72.8994 103.133 72.857 102.993C72.8146 102.852 72.8234 102.701 72.8819 102.567L73.6207 99.4521C73.6619 99.2819 73.7371 99.1216 73.8419 98.9809C73.9466 98.8402 74.0788 98.7218 74.2306 98.6328C74.2821 98.6108 74.3377 98.5994 74.3938 98.5994C74.4499 98.5994 74.5054 98.6108 74.557 98.6328C75.996 99.0161 77.529 98.8231 78.8262 98.0952C79.7453 97.6476 80.5257 96.9618 81.0851 96.1102C81.6445 95.2586 81.9621 94.2728 82.0045 93.2568C82.0045 91.4989 81.0424 90.765 78.7059 90.7564C75.751 90.7564 73.028 90.1932 72.9507 85.8582C72.9853 84.0064 73.4323 82.1851 74.2595 80.5253C75.0868 78.8654 76.2738 77.4081 77.7353 76.2581V72.785C77.7341 72.5695 77.7888 72.3574 77.8942 72.1691C77.9995 71.9808 78.1518 71.8226 78.3366 71.7098L80.3208 70.4553C80.6473 70.2847 80.9221 70.4553 80.9221 70.9161V74.4063C82.1393 73.8544 83.4986 73.6904 84.8134 73.937C84.9517 74.0146 85.0552 74.1414 85.1031 74.2919C85.1509 74.4423 85.1395 74.6052 85.0711 74.7477L84.3753 77.8368C84.2903 78.1521 84.0916 78.4255 83.817 78.6048C83.7194 78.6373 83.6138 78.6373 83.5163 78.6048C82.2347 78.3288 80.8953 78.5485 79.7711 79.2192C78.9501 79.5715 78.2468 80.1485 77.7434 80.8828C77.24 81.6171 76.9571 82.4785 76.9278 83.3665C76.9278 84.9452 77.7696 85.4316 80.5785 85.4828C84.3409 85.4828 85.9644 87.1809 86.0074 90.9356C85.9706 92.8769 85.5089 94.7869 84.6545 96.5331C83.8001 98.2793 82.5734 99.8198 81.0596 101.048L81.051 101.039ZM102.363 95.2365C102.39 95.383 102.375 95.534 102.32 95.6727C102.266 95.8113 102.173 95.9321 102.053 96.0216L91.7627 102.225C91.7155 102.265 91.6568 102.289 91.5951 102.294C91.5333 102.299 91.4717 102.284 91.4191 102.251C91.3662 102.219 91.3246 102.171 91.3 102.115C91.2754 102.058 91.269 101.996 91.2816 101.935V99.2899C91.2887 99.148 91.3371 99.0111 91.421 98.896C91.5049 98.7809 91.6206 98.6924 91.7541 98.6414L101.882 92.6167C101.93 92.5781 101.99 92.5555 102.052 92.5519C102.114 92.5483 102.176 92.564 102.229 92.5968C102.281 92.6296 102.323 92.6778 102.347 92.7349C102.371 92.792 102.376 92.8551 102.363 92.9154V95.2365ZM109.467 36.2361L70.9664 59.8568C66.1646 62.6813 62.6341 65.7705 62.6341 71.522V118.627C62.6341 122.074 64.0515 124.276 66.1818 124.95C65.4791 125.081 64.7664 125.153 64.0515 125.163C61.7837 125.163 59.5675 124.549 57.6262 123.397L16.9356 99.4094C14.9615 98.2199 13.3308 96.5434 12.202 94.5427C11.0731 92.542 10.4844 90.2852 10.4931 87.9916V39.9994C10.4814 37.7029 11.0687 35.4426 12.1977 33.4387C13.3267 31.4347 14.959 29.7555 16.9356 28.5645L57.6348 4.58548C59.5706 3.44547 61.7796 2.84392 64.03 2.84392C66.2804 2.84392 68.4894 3.44547 70.4252 4.58548L111.107 28.5816C112.764 29.5769 114.182 30.9196 115.262 32.5159C116.342 34.1122 117.058 35.9235 117.361 37.8233C116.038 34.9732 112.997 34.1796 109.458 36.2447H109.475L109.467 36.2361Z" fill="#2F3A3E"/>
<path d="M81.051 101.039V104.487C81.0476 104.699 80.9908 104.907 80.8858 105.092C80.7808 105.277 80.6309 105.432 80.4497 105.545L78.3967 106.714C78.0703 106.885 77.7954 106.714 77.7954 106.262V102.883C76.3412 103.59 74.6781 103.751 73.1139 103.335C72.9904 103.254 72.8994 103.133 72.857 102.993C72.8146 102.852 72.8234 102.701 72.8819 102.567L73.6207 99.4521C73.6619 99.2819 73.7371 99.1216 73.8419 98.9809C73.9466 98.8402 74.0788 98.7218 74.2306 98.6328C74.2821 98.6108 74.3377 98.5994 74.3938 98.5994C74.4499 98.5994 74.5054 98.6108 74.557 98.6328C75.996 99.0161 77.529 98.8231 78.8262 98.0952C79.7453 97.6476 80.5257 96.9618 81.0851 96.1102C81.6445 95.2586 81.9621 94.2728 82.0045 93.2568C82.0045 91.4989 81.0424 90.765 78.7059 90.7564C75.751 90.7564 73.028 90.1932 72.9507 85.8582C72.9853 84.0064 73.4323 82.1851 74.2595 80.5253C75.0868 78.8654 76.2738 77.4081 77.7353 76.2581V72.785C77.7341 72.5695 77.7888 72.3574 77.8942 72.1691C77.9995 71.9808 78.1518 71.8226 78.3366 71.7098L80.3208 70.4553C80.6473 70.2847 80.9221 70.4553 80.9221 70.9161V74.4063C82.1393 73.8544 83.4986 73.6904 84.8134 73.937C84.9517 74.0146 85.0552 74.1414 85.1031 74.2919C85.1509 74.4423 85.1395 74.6052 85.0711 74.7477L84.3753 77.8368C84.2903 78.1521 84.0916 78.4255 83.817 78.6048C83.7194 78.6373 83.6138 78.6373 83.5163 78.6048C82.2347 78.3288 80.8953 78.5485 79.7711 79.2192C78.9501 79.5715 78.2468 80.1485 77.7434 80.8828C77.24 81.6171 76.9571 82.4785 76.9278 83.3665C76.9278 84.9452 77.7696 85.4316 80.5785 85.4828C84.3409 85.4828 85.9644 87.1809 86.0074 90.9356C85.9706 92.8769 85.5089 94.7869 84.6545 96.5331C83.8001 98.2793 82.5734 99.8198 81.0596 101.048L81.051 101.039Z" fill="white"/>
<path d="M102.363 95.2365C102.39 95.383 102.375 95.534 102.32 95.6727C102.266 95.8113 102.173 95.9321 102.053 96.0216L91.7627 102.225C91.7155 102.265 91.6568 102.289 91.5951 102.294C91.5333 102.299 91.4717 102.284 91.4191 102.251C91.3662 102.219 91.3246 102.171 91.3 102.115C91.2754 102.058 91.269 101.996 91.2816 101.935V99.2899C91.2887 99.148 91.3371 99.0111 91.421 98.896C91.5049 98.7809 91.6206 98.6924 91.7541 98.6414L101.882 92.6167C101.93 92.5781 101.99 92.5555 102.052 92.5519C102.114 92.5483 102.176 92.564 102.229 92.5968C102.281 92.6296 102.323 92.6778 102.347 92.7349C102.371 92.792 102.376 92.8551 102.363 92.9154V95.2365Z" fill="#3AB14A"/>
</g>
<defs>
<clipPath id="clip0_3207_182">
<rect width="128" height="128" fill="white"/>
</clipPath>
</defs>
</svg>
