<svg width="128" height="128" viewBox="0 0 128 128" fill="none" xmlns="http://www.w3.org/2000/svg">
<g clip-path="url(#clip0_3202_48)">
<path d="M0 111.496C0 120.612 7.38927 128 16.5044 128H111.496C120.612 128 128 120.611 128 111.496V16.5044C128 7.38826 120.611 0 111.496 0H16.5044C7.38826 0 0 7.38927 0 16.5044V111.496Z" fill="#563D7C"/>
<path d="M53.0789 56.619V38.4923H69.0348C70.5544 38.4923 72.0197 38.6189 73.4308 38.8722C74.8419 39.1255 76.0901 39.5777 77.1756 40.229C78.261 40.8803 79.1293 41.7848 79.7806 42.9426C80.4319 44.1004 80.7575 45.5838 80.7575 47.3929C80.7575 50.6492 79.7806 53.0009 77.8268 54.4482C75.873 55.8954 73.3766 56.619 70.3373 56.619H53.0789ZM36.0376 25.25V102.75H73.5936C77.067 102.75 80.4499 102.316 83.7424 101.447C87.0349 100.579 89.9656 99.2404 92.5345 97.4314C95.1033 95.6223 97.1475 93.2886 98.6671 90.4303C100.187 87.572 100.947 84.1891 100.947 80.2815C100.947 75.4332 99.7707 71.2905 97.4189 67.8533C95.0671 64.4161 91.5033 62.01 86.7274 60.6352C90.2008 58.9708 92.8239 56.8361 94.5968 54.2311C96.3697 51.626 97.2561 48.3698 97.2561 44.4622C97.2561 40.8441 96.6591 37.8049 95.4651 35.3445C94.2711 32.8842 92.5887 30.9124 90.4179 29.4289C88.247 27.9455 85.642 26.8782 82.6027 26.2269C79.5635 25.5756 76.1987 25.25 72.5082 25.25H36.0376ZM53.0789 89.5077V68.2332H71.6398C75.3303 68.2332 78.2972 69.0834 80.5404 70.784C82.7836 72.4845 83.9052 75.3247 83.9052 79.3046C83.9052 81.3308 83.5615 82.9951 82.8741 84.2976C82.1866 85.6002 81.264 86.6313 80.1062 87.3911C78.9484 88.1509 77.6097 88.6936 76.0901 89.0193C74.5705 89.3449 72.9786 89.5077 71.3142 89.5077H53.0789Z" fill="white"/>
</g>
<defs>
<clipPath id="clip0_3202_48">
<rect width="128" height="128" fill="white"/>
</clipPath>
</defs>
</svg>
