<svg width="128" height="128" viewBox="0 0 128 128" fill="none" xmlns="http://www.w3.org/2000/svg">
<g clip-path="url(#clip0_3206_152)">
<path d="M120.761 38.0789C120.76 35.9267 120.3 34.0251 119.37 32.3933C118.457 30.7881 117.089 29.4433 115.254 28.3795C100.108 19.6381 84.9482 10.9234 69.8079 2.17318C65.7261 -0.185251 61.7683 -0.0994817 57.7167 2.29317C51.6884 5.85192 21.5065 23.1604 12.5128 28.3746C8.80915 30.521 7.00667 33.8056 7.00578 38.0749C7 55.6545 7.00578 73.2332 7 90.8132C7.00089 92.9179 7.44129 94.7826 8.33009 96.3904C9.24378 98.0436 10.6307 99.4257 12.5079 100.514C21.5021 105.728 51.688 123.035 57.7149 126.595C61.7683 128.989 65.7261 129.074 69.8093 126.715C84.95 117.964 100.111 109.25 115.259 100.508C117.136 99.4208 118.523 98.0378 119.437 96.386C120.324 94.7782 120.766 92.9134 120.766 90.8083C120.766 90.8083 120.766 55.6589 120.761 38.0789Z" fill="#A9B9CB"/>
<path d="M69.7053 2.28804C65.6301 -0.064612 61.679 0.0211574 57.634 2.40759C51.6155 5.95701 21.483 23.2206 12.5039 28.4214C8.80604 30.5621 7.00667 33.8382 7.00578 38.0965C7 55.6303 7.00578 73.1636 7 90.6979C7.00089 92.7972 7.4404 94.657 8.32787 96.2604C9.24022 97.9096 10.625 99.2881 12.499 100.373C15.483 102.098 18.4692 103.819 21.4577 105.537L104.601 22.3931C92.9678 15.6943 81.3312 9.0007 69.7053 2.28804Z" fill="#7F8B99"/>
<path d="M75.6402 56.4311L93.3446 56.556C93.3446 49.1794 85.8778 31.1145 64.4706 31.1145C50.8316 31.1145 32.4956 39.7856 32.4956 64.7156C32.4956 89.6451 50.4703 97.7745 64.4706 97.7745C87.1426 97.7745 92.5611 82.0863 92.5611 73.2205L75.6708 72.2548C75.6708 72.2548 76.1228 82.5094 64.3804 82.5094C53.5415 82.5094 51.7328 69.2316 51.7328 64.7156C51.7328 57.8509 54.1739 46.8312 64.3804 46.8312C74.5874 46.8312 75.6402 56.4311 75.6402 56.4311Z" fill="white"/>
</g>
<defs>
<clipPath id="clip0_3206_152">
<rect width="113.766" height="128" fill="white" transform="translate(7)"/>
</clipPath>
</defs>
</svg>
