<svg width="128" height="128" viewBox="0 0 128 128" fill="none" xmlns="http://www.w3.org/2000/svg">
<path d="M119.426 96.0013C120.319 94.455 120.873 92.7133 120.873 91.1493V36.8497C120.873 35.2856 120.319 33.5439 119.426 32.0012L64 63.9995L119.426 96.0013Z" fill="#00599C"/>
<path d="M68.9278 126.827L115.948 99.6803C117.302 98.8983 118.535 97.5475 119.428 96.0013L64.0011 63.9995L8.57471 96.0013C9.4669 97.5475 10.7003 98.8983 12.0546 99.6803L59.0745 126.827C61.7831 128.391 66.2192 128.391 68.9278 126.827Z" fill="#004482"/>
<path d="M119.427 32.0018C118.535 30.452 117.301 29.1048 115.947 28.3228L68.9272 1.17301C66.2186 -0.391003 61.7825 -0.391003 59.0739 1.17301L12.0541 28.3228C9.34549 29.8868 7.12744 33.7258 7.12744 36.8538V91.1499C7.12744 92.7139 7.68195 94.4556 8.57415 96.0018L64.0006 64L119.427 32.0018Z" fill="#659AD2"/>
<path d="M64.0001 101.916C43.0921 101.916 26.0835 84.9078 26.0835 63.9999C26.0835 43.0919 43.0921 26.0833 64.0001 26.0833C77.4897 26.0833 90.0729 33.3452 96.8337 45.0291L80.4258 54.5269C78.7556 51.6484 76.3601 49.258 73.478 47.594C70.5959 45.93 67.328 45.0506 64.0001 45.0433C58.9745 45.0499 54.1567 47.0492 50.6031 50.6028C47.0495 54.1565 45.0502 58.9743 45.0436 63.9999C45.0483 69.0267 47.0468 73.8463 50.6006 77.4015C54.1544 80.9566 58.9733 82.9569 64.0001 82.9635C67.3284 82.9559 70.5965 82.0759 73.4786 80.4113C76.3607 78.7466 78.756 76.3555 80.4258 73.4764L96.8337 82.9706C93.4936 88.722 88.7044 93.4976 82.9435 96.8212C77.1825 100.145 70.651 101.904 64.0001 101.916Z" fill="white"/>
<path d="M101.916 61.8957H97.6968V57.6799H93.4846V61.8957H89.2725V66.1078H93.4846V70.32H97.6968V66.1078H101.913L101.916 61.8957ZM117.713 61.8957H113.5V57.6799H109.285V61.8957H105.073V66.1078H109.285V70.32H113.497V66.1078H117.709L117.713 61.8957Z" fill="white"/>
</svg>
