<svg width="128" height="128" viewBox="0 0 128 128" fill="none" xmlns="http://www.w3.org/2000/svg">
<path d="M120.345 37.8411C120.345 35.7234 119.894 33.814 118.956 32.217C118.054 30.62 116.7 29.3008 114.895 28.2593C99.8971 19.6148 84.8648 10.9705 69.8671 2.32595C65.8052 -9.96441e-05 61.9169 0.0693629 57.8899 2.43007C51.9186 5.93654 21.9927 23.0865 13.1053 28.2593C9.42528 30.377 7.65479 33.6404 7.65479 37.8759V90.0897C7.65479 92.1727 8.10607 94.0127 8.97399 95.6097C9.87671 97.2414 11.2654 98.6301 13.1053 99.7062C22.0276 104.879 51.9186 121.994 57.8899 125.536C61.9169 127.896 65.8399 128 69.8671 125.64C84.8648 116.96 99.8971 108.351 114.895 99.7062C116.769 98.6301 118.123 97.2761 119.026 95.6097C119.894 94.0127 120.345 92.1727 120.345 90.0897V37.8411Z" fill="#9A4993"/>
<path d="M64.1386 63.7747L8.9043 95.5751C9.80702 97.2068 11.1957 98.5955 13.0356 99.6718C21.9579 104.844 51.8489 121.96 57.8202 125.501C61.8472 127.862 65.7703 127.966 69.7974 125.605C84.7951 116.926 99.8274 108.316 114.825 99.6718C116.7 98.5955 118.054 97.2416 118.956 95.5751L64.1386 63.7747Z" fill="#6A1577"/>
<path d="M47.7871 73.1828C51.0159 78.807 57.0565 82.5911 63.9652 82.5911C70.9432 82.5911 77.0186 78.7723 80.2126 73.0787L64.1388 63.7747L47.7871 73.1828Z" fill="#6A1577"/>
<path d="M120.345 37.8412C120.345 35.7235 119.894 33.8141 118.956 32.217L64.1387 63.7746L119.026 95.5751C119.894 93.9781 120.345 92.1381 120.345 90.0551V37.8412Z" fill="#813084"/>
<path d="M80.2125 73.0787C77.0186 78.7375 70.9432 82.5911 63.9651 82.5911C57.0217 82.5911 50.9811 78.807 47.7872 73.1828C46.2249 70.4403 45.3222 67.3158 45.3222 63.9482C45.3222 53.6374 53.6542 45.3054 63.9651 45.3054C70.839 45.3054 76.8451 49.0547 80.0737 54.6094L96.3557 45.2359C89.8638 34.0572 77.7823 26.5237 63.9304 26.5237C43.2392 26.5237 26.5059 43.2918 26.5059 63.9482C26.5059 70.718 28.311 77.1059 31.4703 82.5911C37.9276 93.8046 50.0784 101.373 63.9651 101.373C77.8866 101.373 90.0374 93.7699 96.4946 82.487L80.2125 73.0787ZM100.799 55.0955H97.0847V73.044H100.799V55.0955ZM109.027 55.0955H105.313V73.044H109.027V55.0955Z" fill="white"/>
<path d="M112.048 58.116H94.0991V61.8307H112.048V58.116ZM112.048 66.309H94.0991V70.0238H112.048V66.309Z" fill="white"/>
</svg>
