<svg width="128" height="128" viewBox="0 0 128 128" fill="none" xmlns="http://www.w3.org/2000/svg">
<path d="M63.6001 64C63.6001 52.2148 72.9167 42.6697 84.4001 42.6697C95.8927 42.6697 105.2 52.2057 105.2 64C105.2 75.7851 95.8927 85.3302 84.4001 85.3302C72.9258 85.3302 63.6001 75.7942 63.6001 64Z" fill="#1ABCFE"/>
<path d="M22 106.67C22 94.8846 31.3166 85.3303 42.8 85.3303H63.6V106.67C63.6 118.446 54.2834 128 42.8 128C31.3166 128 22 118.446 22 106.67Z" fill="#0ACF83"/>
<path d="M63.6001 0V42.6697H84.4001C95.8927 42.6697 105.2 33.1154 105.2 21.3303C105.2 9.55428 95.8927 0 84.4001 0H63.6001Z" fill="#FF7262"/>
<path d="M22 21.3303C22 33.1154 31.3166 42.6697 42.8 42.6697H63.6V0H42.8C31.3166 0 22 9.55428 22 21.3303Z" fill="#F24E1E"/>
<path d="M22 64C22 75.7851 31.3166 85.3302 42.8 85.3302H63.6V42.6697H42.8C31.3166 42.6697 22 52.2057 22 64Z" fill="#A259FF"/>
</svg>
