<svg width="128" height="128" viewBox="0 0 128 128" fill="none" xmlns="http://www.w3.org/2000/svg">
<g clip-path="url(#clip0_3203_95)">
<path d="M2.67593 70.4604C-0.891978 66.8924 -0.891978 61.1077 2.67593 57.5397L57.5397 2.67593C61.1077 -0.891978 66.8924 -0.891978 70.4604 2.67593L125.324 57.5397C128.892 61.1077 128.892 66.8924 125.324 70.4604L70.4604 125.324C66.8924 128.892 61.1077 128.892 57.5397 125.324L2.67593 70.4604Z" fill="#EE513B"/>
<path d="M46.395 13.9958L40.8394 19.5517L55.1886 33.901C54.6081 35.1464 54.2839 36.5353 54.2839 37.9999C54.2839 42.1581 56.8965 45.706 60.5697 47.0916V82.1938C56.8965 83.5794 54.2839 87.1273 54.2839 91.2854C54.2839 96.6505 58.6332 101 63.9982 101C69.3633 101 73.7125 96.6505 73.7125 91.2854C73.7125 87.5158 71.5653 84.2473 68.427 82.6372V47.1396L82.1436 60.8561C81.5914 62.0763 81.2842 63.4308 81.2842 64.8571C81.2842 70.2221 85.6334 74.5714 90.9985 74.5714C96.3635 74.5714 100.713 70.2221 100.713 64.8571C100.713 59.492 96.3635 55.1428 90.9985 55.1428C89.9557 55.1428 88.9518 55.3069 88.0101 55.6109L73.2787 40.8794C73.5608 39.9697 73.7125 39.0024 73.7125 37.9999C73.7125 32.6348 69.3633 28.2855 63.9982 28.2855C62.9957 28.2855 62.0289 28.4374 61.1187 28.7194L46.395 13.9958Z" fill="white"/>
</g>
<defs>
<clipPath id="clip0_3203_95">
<rect width="128" height="128" fill="white"/>
</clipPath>
</defs>
</svg>
