<svg width="128" height="128" viewBox="0 0 128 128" fill="none" xmlns="http://www.w3.org/2000/svg">
<g clip-path="url(#clip0_3203_99)">
<path d="M64 0C28.65 0 0 28.65 0 64C0 99.35 28.65 128 64 128C99.35 128 128 99.35 128 64C128 28.65 99.35 0 64 0ZM96.8 69.6C96.45 72.45 95.85 75.375 94.825 78.05C91.825 85.725 85.825 89.95 77.875 91.225C73.325 91.95 68.65 91.975 63.6 92.35C59.075 91.95 54.1 91.9 49.275 91.05C39.925 89.4 33.575 82.85 31.725 73.475C30.775 68.7 30.5 63.9 31.975 59.15C32.75 56.7 34.025 54.525 35.675 52.55C35.9 52.3 36.1 51.925 36.075 51.6C35.8 47.3 36.3 43.05 37.575 38.95C38.625 35.525 37.85 35.725 41.65 36.725C46.225 37.925 50.225 40.4 54.15 42.975C54.6 43.275 55.3 43.4 55.85 43.3C61.4 42.45 66.925 42.4 72.475 43.375C72.875 43.45 73.4 43.3 73.775 43.075C77.15 40.875 80.625 38.9 84.425 37.525C85.8 37.025 87.25 36.7 88.65 36.275C89.275 36.1 89.55 36.325 89.775 36.925C91.475 41.675 92.175 46.55 91.925 51.575C91.9 51.85 92.05 52.225 92.225 52.45C96.5 57.4 97.575 63.3 96.8 69.6Z" fill="black"/>
<path d="M96.8 69.6C96.45 72.45 95.85 75.375 94.825 78.05C91.825 85.725 85.825 89.95 77.875 91.225C73.325 91.95 68.65 91.975 63.6 92.35C59.075 91.95 54.1 91.9 49.275 91.05C39.925 89.4 33.575 82.85 31.725 73.475C30.775 68.7 30.5 63.9 31.975 59.15C32.75 56.7 34.025 54.525 35.675 52.55C35.9 52.3 36.1 51.925 36.075 51.6C35.8 47.3 36.3 43.05 37.575 38.95C38.625 35.525 37.85 35.725 41.65 36.725C46.225 37.925 50.225 40.4 54.15 42.975C54.6 43.275 55.3 43.4 55.85 43.3C61.4 42.45 66.925 42.4 72.475 43.375C72.875 43.45 73.4 43.3 73.775 43.075C77.15 40.875 80.625 38.9 84.425 37.525C85.8 37.025 87.25 36.7 88.65 36.275C89.275 36.1 89.55 36.325 89.775 36.925C91.475 41.675 92.175 46.55 91.925 51.575C91.9 51.85 92.05 52.225 92.225 52.45C96.5 57.4 97.575 63.3 96.8 69.6Z" fill="white"/>
<path d="M80.0252 63.35C77.8752 62.975 75.6252 63.025 73.4252 63.15C68.4252 63.425 63.4252 63.9 58.4252 63.45C56.0502 63.225 53.6502 63 51.2502 63.05C46.9002 63.125 43.2502 64.55 41.1002 68.7C40.0252 70.75 39.7752 72.95 39.8502 75.225C40.0252 81.625 42.8002 85.275 48.9002 87.1C53.8002 88.55 58.8252 88.75 63.8752 88.65C65.7502 88.65 67.6252 88.75 69.5002 88.625C73.3752 88.4 77.1752 87.825 80.8502 86.475C84.6502 85.075 86.9252 82.4 87.7502 78.525C88.0752 77.025 88.2252 75.45 88.2002 73.925C88.1502 68.75 84.6502 64.125 80.0252 63.35ZM55.4252 80.275C53.8002 82.05 51.4502 82.075 49.7752 80.35C48.5502 79.1 47.8502 77.175 47.8502 74.775C47.9002 73.15 48.3752 71.375 49.7752 69.95C51.4502 68.225 53.8002 68.25 55.4252 70C57.8752 72.65 57.8752 77.625 55.4252 80.275ZM78.1502 80.4C76.6252 81.975 74.4252 82.025 72.8002 80.575C70.0002 78.025 70.0002 72.35 72.8002 69.775C74.4002 68.3 76.6002 68.35 78.1502 69.925C79.5752 71.375 80.0502 73.2 80.1252 75.15C80.0502 77.125 79.5502 78.925 78.1502 80.4Z" fill="black"/>
</g>
<defs>
<clipPath id="clip0_3203_99">
<rect width="128" height="128" fill="white"/>
</clipPath>
</defs>
</svg>
