<svg width="128" height="128" viewBox="0 0 128 128" fill="none" xmlns="http://www.w3.org/2000/svg">
<path d="M119.8 71.232L113.52 52.4L101.104 15.04C100.957 14.617 100.681 14.2506 100.315 13.9924C99.9493 13.7341 99.5117 13.5969 99.0639 13.6C98.6174 13.5986 98.1816 13.7366 97.8173 13.9947C97.4531 14.2529 97.1785 14.6183 97.0319 15.04L84.6159 52.376H43.3759L30.9599 15.032C30.8129 14.6111 30.538 14.2467 30.1736 13.9899C29.8092 13.7332 29.3736 13.5968 28.9279 13.6C28.4811 13.5974 28.0448 13.7349 27.6803 13.9932C27.3158 14.2515 27.0414 14.6176 26.8959 15.04L14.4959 52.376L8.22386 71.232C7.94628 72.0721 7.94655 72.9793 8.22462 73.8193C8.50269 74.6593 9.0438 75.3874 9.76786 75.896L64.0079 114.392L118.232 75.896C118.959 75.3898 119.504 74.6631 119.787 73.8232C120.069 72.9832 120.074 72.0747 119.8 71.232Z" fill="#FC6D26"/>
<path d="M64 114.368L84.624 52.368H43.384L64 114.368Z" fill="#E24329"/>
<path d="M64 114.368L43.368 52.368H14.504L64 114.368Z" fill="#FC6D26"/>
<path d="M14.48 52.392L8.20799 71.224C7.93041 72.0641 7.93068 72.9713 8.20875 73.8113C8.48682 74.6513 9.02793 75.3794 9.75199 75.888L64 114.4L14.48 52.4V52.392Z" fill="#FCA326"/>
<path d="M14.496 52.392H43.392L30.96 15.056C30.8134 14.6343 30.5388 14.2689 30.1745 14.0107C29.8102 13.7526 29.3744 13.6146 28.928 13.616C28.4801 13.6129 28.0426 13.7501 27.6767 14.0084C27.3108 14.2666 27.035 14.633 26.888 15.056L14.496 52.392Z" fill="#E24329"/>
<path d="M64 114.368L84.624 52.368H113.536L64 114.368Z" fill="#FC6D26"/>
<path d="M113.52 52.392L119.784 71.224C120.063 72.064 120.063 72.9717 119.785 73.8119C119.507 74.6522 118.965 75.3803 118.24 75.888L64 114.368L113.504 52.392H113.52Z" fill="#FCA326"/>
<path d="M113.52 52.392H84.64L97.048 15.056C97.194 14.6323 97.4696 14.2653 97.8357 14.0069C98.2018 13.7484 98.6399 13.6117 99.088 13.616C100.008 13.616 100.824 14.2 101.12 15.056L113.536 52.392H113.52Z" fill="#E24329"/>
</svg>
