<svg width="128" height="128" viewBox="0 0 128 128" fill="none" xmlns="http://www.w3.org/2000/svg">
<path fill-rule="evenodd" clip-rule="evenodd" d="M52.7528 67.8972C52.7528 67.8972 49.3996 69.8484 55.1417 70.5075C62.1 71.3021 65.6542 71.1878 73.3197 69.7377C73.3197 69.7377 75.3378 71.0013 78.155 72.0945C60.966 79.46 39.2535 71.6684 52.7528 67.8972ZM50.6516 58.2856C50.6516 58.2856 46.8898 61.07 52.637 61.6643C60.0702 62.4319 65.9375 62.4946 76.0967 60.5398C76.0967 60.5398 77.4995 61.9636 79.707 62.7415C58.9274 68.8193 35.7845 63.22 50.6516 58.2856Z" fill="#3174B9"/>
<path fill-rule="evenodd" clip-rule="evenodd" d="M68.3569 41.9794C72.5942 46.8569 67.2462 51.2436 67.2462 51.2436C67.2462 51.2436 78.0005 45.6931 73.061 38.7399C68.4494 32.2586 64.9119 29.0387 84.0601 17.9348C84.0601 17.9348 54.0025 25.4386 68.3569 41.9794Z" fill="#CA3132"/>
<path fill-rule="evenodd" clip-rule="evenodd" d="M91.0896 75.0072C91.0896 75.0072 93.5717 77.0537 88.3555 78.6364C78.4365 81.6407 47.0643 82.5467 38.35 78.7558C35.2197 77.3924 41.0929 75.5024 42.9406 75.1033C44.8677 74.6867 45.9675 74.7625 45.9675 74.7625C42.484 72.3095 23.4509 79.5803 36.3013 81.6662C71.342 87.3478 100.177 79.1083 91.0896 75.0072ZM54.3657 48.3261C54.3657 48.3261 38.4098 52.1169 48.7162 53.4949C53.0693 54.0768 61.7406 53.9428 69.8242 53.2648C76.4286 52.7105 83.0577 51.5248 83.0577 51.5248C83.0577 51.5248 80.7307 52.5233 79.0447 53.6726C62.8389 57.9355 31.5374 55.9501 40.5496 51.5926C48.1692 47.9066 54.3657 48.3261 54.3657 48.3261ZM82.9914 64.325C99.4637 55.7673 91.8477 47.5417 86.5303 48.6502C85.2303 48.9218 84.6469 49.1563 84.6469 49.1563C84.6469 49.1563 85.1319 48.3974 86.054 48.0712C96.5716 44.375 104.659 58.9755 82.6629 64.7576C82.6622 64.7576 82.9157 64.5289 82.9914 64.325Z" fill="#3174B9"/>
<path fill-rule="evenodd" clip-rule="evenodd" d="M73.0608 0C73.0608 0 82.1815 9.12652 64.4077 23.1561C50.1539 34.4144 61.158 40.8316 64.4034 48.1664C56.0816 40.6597 49.9776 34.0502 54.0722 27.9003C60.0837 18.8728 76.741 14.4949 73.0608 0Z" fill="#CA3132"/>
<path fill-rule="evenodd" clip-rule="evenodd" d="M55.9864 87.5215C71.7952 88.5324 96.0765 86.96 96.6526 79.478C96.6526 79.478 95.5471 82.3141 83.5859 84.5639C70.091 87.1042 53.4439 86.8085 43.5737 85.1793C43.5737 85.1793 45.5963 86.8529 55.9864 87.5215Z" fill="#3174B9"/>
<path fill-rule="evenodd" clip-rule="evenodd" d="M95.922 100.939H95.4413V100.669H96.7385V100.939H96.2578V102.285H95.922V100.939ZM98.5105 101.006H98.5046L98.0269 102.284H97.8076L97.3328 101.006H97.3269V102.284H97.0079V100.669H97.4763L97.9161 101.811L98.3561 100.669H98.82V102.284H98.5112L98.5105 101.006ZM53.3957 116.106C51.9048 117.398 50.3287 118.125 48.9136 118.125C46.8976 118.125 45.8037 116.914 45.8037 114.976C45.8037 112.877 46.9749 111.342 51.6623 111.342H53.3949L53.3957 116.106ZM57.5107 120.748V106.377C57.5107 102.704 55.416 100.28 50.3666 100.28C47.4206 100.28 44.838 101.008 42.7382 101.935L43.3427 104.481C44.9967 103.873 47.1351 103.31 49.2341 103.31C52.143 103.31 53.3949 104.481 53.3949 106.904V108.721H51.9412C44.8751 108.721 41.6866 111.462 41.6866 115.584C41.6866 119.135 43.7877 121.154 47.7432 121.154C50.2858 121.154 52.1852 120.104 53.9587 118.568L54.2813 120.748H57.5107ZM71.2445 120.748H66.1135L59.9352 100.646H64.4173L68.2519 112.999L69.1054 116.71C71.0398 111.342 72.4127 105.892 73.0995 100.646H77.4578C76.291 107.265 74.1891 114.532 71.2445 120.748ZM90.936 116.106C89.4407 117.398 87.8647 118.125 86.4525 118.125C84.4365 118.125 83.344 116.914 83.344 114.976C83.344 112.877 84.5159 111.342 89.2004 111.342H90.936V116.106ZM95.0524 120.748V106.377C95.0524 102.704 92.9512 100.28 87.9069 100.28C84.958 100.28 82.3761 101.008 80.2764 101.935L80.8808 104.481C82.5349 103.873 84.6776 103.31 86.7773 103.31C89.6818 103.31 90.9352 104.481 90.9352 106.904V108.721H89.4815C82.4147 108.721 79.2283 111.462 79.2283 115.584C79.2283 119.135 81.3251 121.154 85.2813 121.154C87.8261 121.154 89.7226 120.104 91.5004 118.568L91.8245 120.748H95.0524ZM37.1746 124.164C36.002 125.878 34.1055 127.235 32.032 128L30 125.607C31.5797 124.796 32.9329 123.487 33.5629 122.27C34.1055 121.184 34.332 119.789 34.332 116.449V93.4961H38.7056V116.132C38.7056 120.6 38.3487 122.405 37.1746 124.164Z" fill="#CA3132"/>
</svg>
