<svg width="128" height="128" viewBox="0 0 128 128" fill="none" xmlns="http://www.w3.org/2000/svg">
<path fill-rule="evenodd" clip-rule="evenodd" d="M122.43 51.6615L127.785 51.6909C127.785 51.6909 117.828 65.1819 117.016 66.2815C116.751 66.6375 116.35 67.0215 116.147 67.4975C115.633 68.6941 115.105 71.3188 115.105 71.3188L110.205 71.3431C110.205 71.3431 110.967 68.6073 110.936 67.15C110.908 65.8769 110.259 64.6054 109.894 63.3286C109.526 62.0364 109.025 59.5073 109.025 59.5073H114.063L114.757 62.2865L122.43 51.6615Z" fill="#1A1918"/>
<path fill-rule="evenodd" clip-rule="evenodd" d="M112.289 54.5068C113.277 55.1026 113.884 58.389 113.884 58.389C113.884 58.389 108.713 58.4652 105.899 58.4652H103.467L100.514 71.3189H95.998C95.998 71.3189 98.8084 57.3502 99.4719 54.8177C99.6872 53.998 100.945 54.1385 103.069 54.1385H106.461C108.652 54.1385 111.212 53.8589 112.289 54.5068Z" fill="#1A1918"/>
<path fill-rule="evenodd" clip-rule="evenodd" d="M91.2649 60.7667C91.2649 60.7667 91.4057 59.9416 90.7873 58.9862C90.2593 58.1717 89.7713 57.9824 88.3817 57.9389C84.4579 57.8156 84.5341 60.7233 84.5341 60.7233L91.2649 60.7667ZM95.5206 57.437C96.0956 59.511 94.9995 64.3848 94.9995 64.3848C94.9995 64.3848 89.276 64.2892 86.141 64.3848C85.1663 64.4145 83.9993 64.2789 83.7093 64.7323C83.301 65.3679 83.8583 66.346 84.3309 66.7592C84.8747 67.2351 85.934 67.2891 86.3146 67.3376C88.8592 67.6608 94.1849 67.421 94.1849 67.421L93.2624 71.5062C93.2624 71.5062 85.7364 71.8833 81.9722 70.9851C81.2289 70.8081 80.5323 70.4503 80.0615 69.943C79.933 69.8042 79.8217 69.6149 79.7001 69.4516C79.6029 69.3211 79.32 68.8923 79.193 68.5534C78.3332 66.2624 79.2937 61.8731 80.2351 59.5213C80.3445 59.2486 80.4818 58.9031 80.6262 58.6094C80.8067 58.243 80.9595 57.8296 81.1036 57.6106C81.2007 57.4596 81.3209 57.3622 81.4217 57.2197C81.5379 57.0513 81.6733 56.888 81.7986 56.7423C82.1458 56.3392 82.5401 56.0543 83.0143 55.7002C84.5827 54.5259 87.421 53.6139 90.8307 53.9631C92.1143 54.095 94.053 54.5536 94.9995 55.8738C95.253 56.2264 95.3781 56.9262 95.5206 57.437Z" fill="#1A1918"/>
<path fill-rule="evenodd" clip-rule="evenodd" d="M74.8073 54.1227L79.1863 54.0967C79.1863 54.0967 76.746 65.6736 75.5023 71.3188H70.4649C66.9442 71.3188 63.8089 71.7548 62.4749 69.2343C61.181 66.7871 62.4159 62.7624 62.996 60.0283C63.406 58.0934 64.2694 54.1384 64.2694 54.1384L68.8063 54.0967C68.8063 54.0967 67.5243 60.2542 66.991 63.3286C66.8 64.4299 66.4059 65.4669 66.8174 66.2814C67.2082 67.0563 67.7553 67.1117 69.4227 67.15C69.9509 67.1622 71.6809 67.15 71.6809 67.15L74.8073 54.1227Z" fill="#1A1918"/>
<path fill-rule="evenodd" clip-rule="evenodd" d="M54.3108 62.4601C54.7694 60.831 55.438 59.0645 55.353 57.5966C55.261 56.0265 53.9445 54.597 53.0951 54.2966C50.5365 53.3932 48.1413 54.6561 47.1894 55.6859C45.9577 57.0201 45.5409 58.5782 45.1049 60.7233C44.7802 62.316 44.5144 63.9974 45.1049 65.2394C46.1504 67.435 49.4108 66.9556 52.9212 66.9764C53.4423 65.58 53.8731 64.0113 54.3108 62.4601ZM60.3903 56.0334C60.8906 59.6706 58.9713 63.685 57.6494 67.176C58.9973 67.2977 60.1785 67.1571 60.2636 67.2577C60.3521 67.3881 59.3602 71.4248 59.0144 71.4351C57.9446 71.463 54.3996 71.4925 52.9212 71.4925C48.0977 71.4925 43.5851 71.8068 41.2838 69.4082C40.3493 68.4337 39.7031 66.7626 39.5467 65.5868C39.286 63.6239 39.6126 61.4631 40.0678 59.6812C40.4795 58.0726 41.0074 56.5545 41.8048 55.1649C43.8317 51.6267 47.3579 49.0005 53.2687 49.6067C54.415 49.7249 56.0616 50.2268 57.09 50.8224C57.1611 50.8644 57.4098 51.0623 57.4669 51.0971C58.8565 51.9813 60.1228 54.0916 60.3903 56.0334Z" fill="#1A1918"/>
<path fill-rule="evenodd" clip-rule="evenodd" d="M39.0481 54.1435C38.7563 55.4723 38.4645 56.9784 38.157 58.2915H33.2935C33.6703 56.8359 33.9587 55.3889 34.3356 54.1227C35.892 54.1227 37.3389 54.1435 39.0481 54.1435Z" fill="#1A1918"/>
<path fill-rule="evenodd" clip-rule="evenodd" d="M33.12 59.5073H37.8096C37.1966 62.9015 35.9826 68.3764 35.0306 72.1872C34.4348 74.5721 34.037 76.3126 32.425 77.5718C32.2808 77.6848 32.1977 77.6311 32.0778 77.7456C31.7806 78.0288 30.4067 78.3572 29.6461 78.4403C28.4092 78.5742 27.011 78.4577 25.4912 78.4266C25.8889 76.9727 26.3389 75.227 26.6932 73.9242C30.3981 74.3725 30.492 70.8706 31.2093 67.4975C31.6244 65.5486 32.8821 60.2891 33.12 59.5073Z" fill="#1A1918"/>
<path fill-rule="evenodd" clip-rule="evenodd" d="M22.177 68.3659L22.0765 68.6264C20.3637 71.9612 17.3292 74.0075 13.0008 74.0977C10.9773 74.1394 9.0492 73.6203 7.7898 73.0556C5.07164 71.8345 2.78554 69.5697 1.53692 67.1499C-0.254095 63.6812 -0.577038 58.8559 3.14698 55.2518C3.20436 55.2518 2.6953 56.0333 2.75268 56.0333L2.65018 56.3668C-0.0334053 64.7685 8.23436 71.9683 16.2714 71.1449C18.2029 70.947 20.6661 69.8892 22.177 68.3659Z" fill="#21609B"/>
<path fill-rule="evenodd" clip-rule="evenodd" d="M17.3135 64.8918C19.3356 64.9058 21.4476 63.9607 22.6981 62.6339C21.604 65.4114 18.4359 67.1968 14.1871 66.6289C10.6298 66.1529 7.24103 62.5731 6.89185 58.9862C6.63659 56.3756 7.54656 54.8176 9.04578 52.9277C8.52471 53.9162 8.33001 54.6785 8.28146 55.1648C7.71183 60.8117 12.7924 64.8624 17.3135 64.8918Z" fill="#21609B"/>
<path fill-rule="evenodd" clip-rule="evenodd" d="M22.4952 57.8781C22.1808 58.599 20.3709 59.9607 19.5718 60.1308C16.4071 60.8049 14.3802 59.3042 13.3186 57.5966C13.1607 57.3413 12.8689 56.6449 12.8167 56.4676C12.405 55.0677 12.5943 52.9503 13.8226 51.8542C13.4525 52.8964 13.3986 54.107 13.5933 54.8939C13.7112 55.3698 14.0707 56.2004 14.4304 56.7229C15.0851 57.6748 15.5003 57.906 16.3411 58.4114C16.7197 58.639 17.126 58.8214 17.3016 58.8717C18.0988 59.1061 19.7819 59.7245 22.4952 57.8781Z" fill="#21609B"/>
</svg>
