<svg width="128" height="128" viewBox="0 0 128 128" fill="none" xmlns="http://www.w3.org/2000/svg">
<g clip-path="url(#clip0_3203_53)">
<circle cx="64" cy="64" r="64" fill="white"/>
<path fill-rule="evenodd" clip-rule="evenodd" d="M118.943 52.0327L124.025 52.0606C124.025 52.0606 114.577 64.8625 113.806 65.9058C113.555 66.2437 113.174 66.6081 112.981 67.0597C112.494 68.1952 111.993 70.6859 111.993 70.6859L107.343 70.7089C107.343 70.7089 108.066 68.1128 108.037 66.73C108.01 65.5219 107.394 64.3154 107.048 63.1038C106.698 61.8776 106.224 59.4777 106.224 59.4777H111.004L111.663 62.1149L118.943 52.0327Z" fill="#1A1918"/>
<path fill-rule="evenodd" clip-rule="evenodd" d="M109.32 54.7326C110.258 55.298 110.833 58.4164 110.833 58.4164C110.833 58.4164 105.926 58.4888 103.256 58.4888H100.949L98.1467 70.6859H93.8613C93.8613 70.6859 96.5281 57.4308 97.1578 55.0276C97.3621 54.2498 98.5555 54.3831 100.571 54.3831H103.79C105.869 54.3831 108.298 54.1178 109.32 54.7326Z" fill="#1A1918"/>
<path fill-rule="evenodd" clip-rule="evenodd" d="M89.3704 60.6728C89.3704 60.6728 89.504 59.8898 88.9171 58.9832C88.4162 58.2103 87.9531 58.0306 86.6345 57.9894C82.9111 57.8724 82.9835 60.6316 82.9835 60.6316L89.3704 60.6728ZM93.4087 57.5131C93.9543 59.4812 92.9142 64.106 92.9142 64.106C92.9142 64.106 87.4831 64.0153 84.5082 64.106C83.5833 64.1342 82.476 64.0055 82.2007 64.4357C81.8133 65.0389 82.3422 65.967 82.7906 66.3591C83.3067 66.8107 84.3119 66.8619 84.673 66.908C87.0876 67.2147 92.1412 66.9871 92.1412 66.9871L91.2659 70.8636C91.2659 70.8636 84.1243 71.2215 80.5524 70.3692C79.8471 70.2012 79.186 69.8617 78.7393 69.3803C78.6174 69.2486 78.5117 69.069 78.3963 68.914C78.3042 68.7902 78.0357 68.3832 77.9151 68.0617C77.0993 65.8877 78.0108 61.7226 78.904 59.491C79.0078 59.2322 79.1381 58.9044 79.2752 58.6256C79.4464 58.278 79.5914 57.8857 79.7282 57.6779C79.8203 57.5345 79.9344 57.4422 80.03 57.307C80.1403 57.1471 80.2687 56.9922 80.3876 56.8539C80.7171 56.4714 81.0913 56.201 81.5413 55.865C83.0295 54.7507 85.7229 53.8854 88.9583 54.2167C90.1764 54.3419 92.016 54.777 92.9142 56.0298C93.1548 56.3644 93.2735 57.0285 93.4087 57.5131Z" fill="#1A1918"/>
<path fill-rule="evenodd" clip-rule="evenodd" d="M73.7532 54.3682L77.9085 54.3435C77.9085 54.3435 75.5928 65.329 74.4127 70.6859H69.6326C66.2917 70.6859 63.3166 71.0996 62.0508 68.7078C60.8229 66.3856 61.9947 62.5666 62.5453 59.9721C62.9343 58.136 63.7536 54.3831 63.7536 54.3831L68.0587 54.3435C68.0587 54.3435 66.8423 60.1864 66.3362 63.1038C66.1549 64.1488 65.781 65.1329 66.1714 65.9058C66.5423 66.6411 67.0615 66.6937 68.6437 66.73C69.1449 66.7416 70.7865 66.73 70.7865 66.73L73.7532 54.3682Z" fill="#1A1918"/>
<path fill-rule="evenodd" clip-rule="evenodd" d="M54.3038 62.2797C54.739 60.7337 55.3735 59.0575 55.2927 57.6646C55.2055 56.1747 53.9562 54.8182 53.1502 54.5331C50.7224 53.6759 48.4495 54.8743 47.5462 55.8515C46.3774 57.1176 45.9819 58.596 45.5682 60.6316C45.2601 62.1429 45.0079 63.7384 45.5682 64.9169C46.5603 67.0004 49.6541 66.5455 52.9852 66.5653C53.4797 65.2401 53.8885 63.7516 54.3038 62.2797ZM60.0728 56.1812C60.5475 59.6327 58.7262 63.4419 57.4718 66.7547C58.7509 66.8701 59.8717 66.7367 59.9525 66.8321C60.0365 66.9559 59.0953 70.7864 58.7672 70.7962C57.752 70.8227 54.3881 70.8506 52.9852 70.8506C48.4081 70.8506 44.126 71.1489 41.9422 68.8728C41.0555 67.9481 40.4424 66.3624 40.2939 65.2466C40.0466 63.384 40.3565 61.3336 40.7884 59.6427C41.179 58.1162 41.68 56.6757 42.4367 55.3571C44.3601 51.9997 47.7061 49.5076 53.3149 50.0828C54.4027 50.195 55.9652 50.6713 56.9411 51.2365C57.0086 51.2763 57.2445 51.464 57.2987 51.4971C58.6173 52.3361 59.8189 54.3386 60.0728 56.1812Z" fill="#1A1918"/>
<path fill-rule="evenodd" clip-rule="evenodd" d="M39.821 54.3879C39.5441 55.6489 39.2672 57.078 38.9754 58.324H34.3604C34.718 56.9428 34.9916 55.5697 35.3493 54.3682C36.8261 54.3682 38.1992 54.3879 39.821 54.3879Z" fill="#1A1918"/>
<path fill-rule="evenodd" clip-rule="evenodd" d="M34.1956 59.4777H38.6457C38.064 62.6985 36.912 67.8936 36.0087 71.5098C35.4432 73.7729 35.0658 75.4245 33.5362 76.6193C33.3993 76.7266 33.3205 76.6756 33.2067 76.7843C32.9247 77.053 31.6209 77.3646 30.8992 77.4435C29.7255 77.5705 28.3987 77.46 26.9565 77.4304C27.334 76.0509 27.7609 74.3944 28.0972 73.1581C31.6128 73.5835 31.7019 70.2605 32.3825 67.0597C32.7764 65.2103 33.9699 60.2195 34.1956 59.4777Z" fill="#1A1918"/>
<path fill-rule="evenodd" clip-rule="evenodd" d="M23.8116 67.8838L23.7162 68.1309C22.0909 71.2954 19.2114 73.2371 15.1041 73.3228C13.1839 73.3623 11.3543 72.8697 10.1593 72.3339C7.57997 71.1751 5.41065 69.026 4.22582 66.7299C2.52629 63.4383 2.21984 58.8596 5.75362 55.4396C5.80807 55.4396 5.32502 56.1811 5.37947 56.1811L5.2822 56.4976C2.73571 64.4701 10.5811 71.3021 18.2076 70.5208C20.0405 70.333 22.3778 69.3292 23.8116 67.8838Z" fill="#21609B"/>
<path fill-rule="evenodd" clip-rule="evenodd" d="M19.1965 64.5872C21.1152 64.6004 23.1193 63.7037 24.306 62.4446C23.2678 65.0802 20.2615 66.7744 16.2297 66.2355C12.8542 65.7839 9.63849 62.3869 9.30715 58.9832C9.06492 56.506 9.92842 55.0276 11.351 53.2343C10.8566 54.1722 10.6718 54.8956 10.6258 55.357C10.0852 60.7155 14.9062 64.5592 19.1965 64.5872Z" fill="#21609B"/>
<path fill-rule="evenodd" clip-rule="evenodd" d="M24.1133 57.9317C23.815 58.6158 22.0975 59.9079 21.3392 60.0694C18.3362 60.709 16.4128 59.285 15.4055 57.6646C15.2557 57.4224 14.9788 56.7615 14.9292 56.5933C14.5385 55.2649 14.7182 53.2557 15.8837 52.2156C15.5326 53.2045 15.4814 54.3532 15.6661 55.0999C15.778 55.5516 16.1192 56.3397 16.4605 56.8355C17.0818 57.7388 17.4757 57.9582 18.2736 58.4378C18.6329 58.6537 19.0184 58.8268 19.185 58.8745C19.9415 59.097 21.5386 59.6838 24.1133 57.9317Z" fill="#21609B"/>
</g>
<defs>
<clipPath id="clip0_3203_53">
<rect width="128" height="128" fill="white"/>
</clipPath>
</defs>
</svg>
