<svg width="128" height="128" viewBox="0 0 128 128" fill="none" xmlns="http://www.w3.org/2000/svg">
<g clip-path="url(#clip0_3202_39)">
<path d="M121.25 81.7673C121.243 84.6638 120.089 87.4395 118.041 89.4876C115.993 91.5357 113.218 92.6895 110.321 92.6967H18.444C15.5476 92.6895 12.7719 91.5357 10.7238 89.4876C8.67569 87.4395 7.52188 84.6638 7.51465 81.7673V46.9522C7.52188 44.0558 8.67569 41.28 10.7238 39.232C12.7719 37.1839 15.5476 36.0301 18.444 36.0228H110.321C113.218 36.0301 115.993 37.1839 118.041 39.232C120.089 41.28 121.243 44.0558 121.25 46.9522V81.7673Z" fill="url(#paint0_linear_3202_39)"/>
<path d="M102.031 63.6156C104.033 64.0235 105.837 65.1003 107.146 66.6692C108.455 68.2381 109.192 70.2057 109.235 72.2487C109.282 73.4743 109.036 74.6934 108.517 75.8049C107.999 76.9165 107.223 77.8884 106.253 78.6401C103.792 80.4321 100.794 81.3322 97.7529 81.1921C94.156 81.1517 90.6311 80.1797 87.522 78.3708C87.586 77.318 87.8331 76.2844 88.2524 75.3166C88.6176 74.3486 89.1594 73.457 89.8503 72.6869C92.1479 74.0185 94.7271 74.7896 97.3785 74.9376C98.1868 74.9844 98.9924 74.8075 99.7068 74.4263C99.9537 74.2931 100.16 74.0953 100.303 73.8541C100.446 73.6128 100.521 73.3372 100.519 73.0567C100.519 71.9824 99.6886 71.1773 98.0268 70.6417L95.0456 69.514C90.5351 67.8705 88.2798 65.1892 88.2798 61.4699C88.2278 60.2466 88.4572 59.0277 88.9502 57.907C89.4433 56.7863 90.187 55.7936 91.124 55.0054C93.2415 53.1348 95.9594 52.0851 98.7846 52.0471C100.554 52.0703 102.316 52.2955 104.035 52.7182C105.689 53.2373 107.272 53.9612 108.746 54.8731C108.795 56.0022 108.593 57.1282 108.153 58.1692C107.826 59.1646 107.224 60.0476 106.418 60.7167C104.056 59.5302 101.478 58.8374 98.8394 58.6805C98.2484 58.6396 97.6623 58.8112 97.1868 59.1645C97.0047 59.3132 96.8591 59.5016 96.761 59.7152C96.6629 59.9289 96.6149 60.1621 96.6207 60.3971C96.6207 61.2554 97.307 61.9341 98.6796 62.4332L102.04 63.6156H102.031Z" fill="#F6F6F6"/>
<path d="M78.0667 63.6156C80.0681 64.0244 81.8711 65.1016 83.1794 66.6704C84.4877 68.2392 85.2236 70.2063 85.2662 72.2487C85.3132 73.4738 85.0678 74.6926 84.5502 75.804C84.0326 76.9155 83.2577 77.8877 82.2896 78.6401C79.8279 80.4311 76.8301 81.3311 73.789 81.1921C70.1922 81.1513 66.6674 80.1793 63.5581 78.3708C63.6216 77.3179 63.8688 76.2842 64.2886 75.3166C64.6529 74.3482 65.1948 73.4564 65.8864 72.6869C68.184 74.0185 70.7632 74.7896 73.4146 74.9376C74.223 74.9849 75.0287 74.8079 75.7429 74.4263C75.9895 74.2927 76.1952 74.0948 76.3383 73.8537C76.4814 73.6125 76.5565 73.3371 76.5556 73.0567C76.5556 71.9824 75.7247 71.1773 74.0629 70.6417L71.0818 69.514C66.5712 67.8705 64.3159 65.1892 64.3159 61.4699C64.2636 60.2466 64.4928 59.0276 64.9859 57.9068C65.479 56.786 66.2229 55.7934 67.1601 55.0054C69.276 53.1351 71.9924 52.0854 74.8162 52.0471C76.5861 52.0701 78.3475 52.2952 80.0663 52.7182C81.7205 53.2372 83.3033 53.9611 84.7777 54.8731C84.8269 56.0022 84.6242 57.1282 84.1842 58.1692C83.8571 59.1646 83.2558 60.0476 82.4494 60.7167C80.0863 59.5298 77.5061 58.837 74.8664 58.6805C74.2754 58.6392 73.6891 58.8108 73.2138 59.1645C73.032 59.3134 72.8866 59.5019 72.7885 59.7155C72.6904 59.929 72.6422 60.1621 72.6477 60.3971C72.6477 61.2554 73.334 61.9341 74.7066 62.4332L78.0667 63.6156Z" fill="#F6F6F6"/>
<path d="M60.5543 63.9945C60.5705 62.4378 60.3044 60.891 59.769 59.4292C59.2795 58.0878 58.5143 56.8639 57.5229 55.8363C56.5159 54.8133 55.3081 54.0097 53.9756 53.476C52.5242 52.6938 50.9322 52.2066 49.2916 52.0425C47.3957 52.1844 45.5553 52.7474 43.9045 53.6906C42.4267 54.3614 41.1284 55.3719 40.1153 56.6398C39.0895 57.9531 38.3338 59.4566 37.892 61.0636C37.3905 62.8709 37.1447 64.7395 37.1616 66.615C37.1454 68.544 37.3444 70.4687 37.7551 72.3536C38.1043 74.0011 38.7965 75.5566 39.7866 76.9189C40.7586 78.2176 42.0432 79.2494 43.521 79.9183C45.3084 80.7553 47.2586 81.1871 49.2323 81.1829C53.0225 81.2409 56.7347 80.1036 59.8421 77.9324C59.6613 76.091 58.8857 74.3585 57.6324 72.9973C56.3589 73.49 55.0513 73.8898 53.72 74.1934C52.7368 74.4164 51.7332 74.5373 50.7251 74.5541C50.0457 74.6205 49.3601 74.5363 48.717 74.3074C48.0739 74.0786 47.4891 73.7108 47.0044 73.2301C46.1894 72.2415 45.751 70.996 45.7672 69.7148H59.8421C60.3503 67.8516 60.5901 65.9254 60.5543 63.9945ZM45.7261 64.3643C45.7304 62.7891 46.0696 61.2329 46.7213 59.799C47.0079 59.3963 47.3931 59.074 47.8399 58.863C48.2868 58.652 48.7804 58.5592 49.2734 58.5937C49.7895 58.5623 50.305 58.6642 50.7704 58.8897C51.2357 59.1152 51.6352 59.4566 51.9304 59.8811C52.553 61.0873 52.8578 62.4323 52.816 63.789V64.3825H45.7261V64.3643Z" fill="#F6F6F6"/>
<path d="M124.085 67.9528C123.281 68.6769 122.646 69.5704 122.228 70.5689C121.809 71.5675 121.617 72.6464 121.666 73.728V83.0914C121.768 84.441 121.537 85.795 120.993 87.0344C120.45 88.2739 119.61 89.3608 118.548 90.1996C116.361 91.8171 113.716 92.6951 110.997 92.706H109.294V88.0129C110.324 87.7684 111.265 87.2401 112.01 86.488C112.65 85.8729 113.152 85.1284 113.482 84.3042C113.811 83.48 113.962 82.595 113.923 81.7081V74.1434C113.764 72.0613 114.17 69.9748 115.096 68.1035C116.5 66.3103 118.408 64.9779 120.575 64.2778C117.976 63.2721 115.829 61.3602 114.53 58.8952C113.972 57.1813 113.762 55.3729 113.914 53.5766V46.6465C114.017 44.8844 113.416 43.1536 112.243 41.8346C111.435 41.053 110.399 40.5506 109.285 40.4011V36.0184C111.316 36.0184 112.339 36.0184 113.521 36.0184C115.263 36.1387 116.911 36.8507 118.192 38.0363C119.668 39.2167 120.741 40.8262 121.264 42.6427C121.556 43.6819 121.689 44.7594 121.657 45.8384V53.8597C121.584 55.0124 121.749 56.1676 122.142 57.2537C122.535 58.3399 123.147 59.3337 123.939 60.1735C125.05 61.1977 126.385 61.9467 127.838 62.3603V65.9852C126.452 66.323 125.168 66.9901 124.095 67.93L124.085 67.9528Z" fill="#F6F6F6" stroke="#404040" stroke-width="0.25" stroke-miterlimit="10"/>
<path d="M16.4078 36.0228H14.8829C13.1413 36.142 11.493 36.8541 10.2126 38.0407C8.66004 39.1492 7.56709 40.7878 7.14016 42.6471C6.97647 43.704 6.91836 44.7745 6.96668 45.8428V53.8641C7.00833 55.0331 6.80892 56.1981 6.38087 57.2867C5.95282 58.3753 5.30529 59.3641 4.47858 60.1916C3.14003 61.1994 1.61927 61.9389 0 62.3693V65.9896C1.55917 66.3347 3.03075 66.9967 4.32336 67.9344C5.15914 68.6449 5.82838 69.5306 6.28361 70.5286C6.73885 71.5267 6.96893 72.6126 6.95755 73.7095V83.073C6.81776 84.4061 7.00969 85.753 7.51626 86.9939C8.02284 88.2349 8.82834 89.3314 9.86109 90.1858C12.0468 91.8048 14.6921 92.6844 17.4121 92.6967H19.3341V88.0127C18.2437 87.7573 17.2346 87.2331 16.3986 86.4879C15.7946 85.856 15.3314 85.1034 15.0395 84.2795C14.7475 83.4556 14.6335 82.5791 14.7049 81.708V74.1478C14.803 72.0449 14.3213 69.9556 13.3125 68.1079C11.9089 66.3147 10.001 64.9823 7.83409 64.2822C10.4316 63.2772 12.5783 61.3672 13.8786 58.9042C14.5239 57.2087 14.8084 55.3973 14.714 53.5856V46.6509C14.5512 44.9197 15.0704 43.1932 16.1612 41.839C16.9217 41.2179 17.8231 40.793 18.7863 40.6018H20.7402V36.0228H16.4078Z" fill="#F6F6F6" stroke="#404040" stroke-width="0.25" stroke-miterlimit="10"/>
<path d="M34.4082 74.02H32.9473C31.3586 74.02 30.7606 73.1845 30.7606 71.5045V40.6475C30.8476 39.2387 30.412 37.8472 29.537 36.7396C28.8522 35.9909 27.6607 36 25.9624 36H22.6617H22.2736V73.0065C22.1235 75.0241 22.6928 77.0297 23.8806 78.6675C24.5696 79.3278 25.3941 79.8303 26.2967 80.1401C27.1994 80.4499 28.1586 80.5596 29.1079 80.4617C31.0504 80.4392 32.9879 80.2591 34.9013 79.9229C35.0448 79.1572 35.1 78.3775 35.0656 77.5992C35.0604 76.3804 34.841 75.172 34.4174 74.0291L34.4082 74.02Z" fill="#F6F6F6"/>
</g>
<defs>
<linearGradient id="paint0_linear_3202_39" x1="64.3848" y1="36.0228" x2="64.3848" y2="92.6967" gradientUnits="userSpaceOnUse">
<stop offset="0.15" stop-color="#2A4F84"/>
<stop offset="0.388" stop-color="#294E82"/>
<stop offset="1" stop-color="#172E4E"/>
</linearGradient>
<clipPath id="clip0_3202_39">
<rect width="128" height="128" fill="white"/>
</clipPath>
</defs>
</svg>
