<svg width="128" height="128" viewBox="0 0 128 128" fill="none" xmlns="http://www.w3.org/2000/svg">
<path d="M30.749 100.534H25.814C25.6395 92.2036 25.1588 84.3723 24.373 77.0341H24.3292L16.8155 100.534H13.0581L5.58926 77.0341H5.54635C4.99228 84.0795 4.64325 91.9127 4.4983 100.534H0C0.289905 90.0502 1.01848 80.2221 2.18287 71.0481H8.29949L15.4184 92.7138H15.4623L22.625 71.0481H28.4775C29.7592 81.7937 30.5163 91.6228 30.749 100.534ZM52.1515 78.7792C50.1422 89.6831 47.4911 97.6059 44.201 102.551C41.6377 106.358 38.8292 108.264 35.7709 108.264C34.9555 108.264 33.9494 108.018 32.7574 107.529V104.9C33.3401 104.984 34.0238 105.032 34.8096 105.032C36.2382 105.032 37.3863 104.639 38.2618 103.851C39.3089 102.892 39.8324 101.813 39.8324 100.62C39.8324 99.8021 39.4243 98.1294 38.6099 95.5966L33.1942 78.7783H38.0424L41.9295 91.3567C42.803 94.2129 43.1673 96.2069 43.0214 97.3427C45.147 91.6657 46.6318 85.4757 47.4777 78.7773H52.1515V78.7792Z" fill="#5D87A1"/>
<path d="M117.843 100.534H103.824V71.048H108.54V96.904H117.843V100.534ZM100.155 101.246L94.7344 98.5709C95.2151 98.1761 95.6747 97.7489 96.0886 97.254C98.3926 94.5475 99.5417 90.5451 99.5417 85.2439C99.5417 75.4891 95.7138 70.6094 88.0552 70.6094C84.2998 70.6094 81.3702 71.8472 79.275 74.3238C76.973 77.0321 75.8238 81.0202 75.8238 86.2929C75.8238 91.4759 76.8423 95.278 78.8802 97.6898C80.7446 99.8746 83.555 100.968 87.3132 100.968C88.7151 100.968 90.0015 100.797 91.1736 100.451L98.2305 104.559L100.155 101.246ZM82.5956 94.6334C81.4016 92.7128 80.8047 89.6287 80.8047 85.3764C80.8047 77.9524 83.06 74.2361 87.5755 74.2361C89.9357 74.2361 91.6656 75.1248 92.7719 76.8986C93.9639 78.8221 94.5637 81.8785 94.5637 86.0716C94.5637 93.5567 92.3065 97.2997 87.7939 97.2997C85.4327 97.3007 83.7028 96.4148 82.5956 94.6334ZM73.7687 92.3609C73.7687 94.8613 72.8513 96.9126 71.0185 98.5194C69.1837 100.12 66.7233 100.922 63.6402 100.922C60.7564 100.922 57.9603 100 55.2539 98.1675L56.5213 95.6356C58.8501 96.8019 60.9586 97.3817 62.8515 97.3817C64.6281 97.3817 66.0166 96.9879 67.0237 96.2069C68.0298 95.423 68.6296 94.3234 68.6296 92.933C68.6296 91.1812 67.408 89.684 65.1669 88.43C63.1004 87.2951 58.9674 84.9225 58.9674 84.9225C56.7273 83.2899 55.6058 81.5371 55.6058 78.6495C55.6058 76.2597 56.4421 74.3305 58.1158 72.8628C59.7913 71.3894 61.9532 70.6551 64.6034 70.6551C67.3403 70.6551 69.8283 71.3885 72.0694 72.8399L70.9326 75.3728C69.0158 74.5584 67.1238 74.1512 65.2575 74.1512C63.746 74.1512 62.5788 74.5145 61.7672 75.244C60.949 75.9707 60.4445 76.9005 60.4445 78.0411C60.4445 79.7843 61.6919 81.3006 63.994 82.5794C66.0882 83.7161 70.3242 86.1298 70.3242 86.1298C72.6215 87.7596 73.7687 89.4961 73.7687 92.3609Z" fill="#F8981D"/>
<path d="M123.763 61.1721C120.912 61.0996 118.704 61.3867 116.851 62.1706C116.316 62.3842 115.466 62.3842 115.391 63.0603C115.68 63.3464 115.713 63.808 115.964 64.2028C116.391 64.9151 117.136 65.8735 117.816 66.3732C118.563 66.9454 119.312 67.5119 120.098 68.0106C121.484 68.868 123.055 69.3667 124.405 70.2212C125.192 70.718 125.974 71.3608 126.761 71.8958C127.149 72.1809 127.396 72.6434 127.899 72.8217V72.713C127.647 72.3926 127.576 71.9291 127.329 71.5725L126.259 70.5406C125.225 69.1521 123.94 67.9401 122.555 66.9445C121.414 66.1587 118.92 65.0906 118.457 63.7765L118.385 63.704C119.168 63.6306 120.098 63.3464 120.843 63.128C122.055 62.8086 123.16 62.881 124.404 62.5616C124.976 62.4185 125.544 62.2392 126.118 62.0628V61.7414C125.473 61.0996 125.013 60.2471 124.335 59.6406C122.521 58.0738 120.523 56.5413 118.457 55.2586C117.351 54.5443 115.928 54.0847 114.75 53.4772C114.326 53.2627 113.611 53.1568 113.361 52.8001C112.722 52.0163 112.362 50.9844 111.899 50.0565C110.869 48.0987 109.869 45.9263 108.98 43.856C108.337 42.4675 107.946 41.0809 107.162 39.7964C103.491 33.7408 99.5036 30.0731 93.3755 26.4731C92.0585 25.7236 90.4917 25.4041 88.8181 25.0112L86.145 24.8701C85.5748 24.6202 85.0035 23.9422 84.5057 23.6217C82.4726 22.3401 77.2381 19.5621 75.7428 23.2298C74.7796 25.5481 77.1675 27.8273 77.9876 29.0031C78.5932 29.8194 79.378 30.7483 79.8014 31.6752C80.0522 32.2808 80.1228 32.9235 80.3736 33.5634C80.9439 35.1312 81.477 36.8754 82.2265 38.3383C82.6175 39.084 83.0438 39.8679 83.5435 40.5431C83.8296 40.9379 84.3274 41.1124 84.4361 41.7561C83.9393 42.4656 83.9002 43.5365 83.615 44.4272C82.3333 48.4525 82.834 53.4391 84.6507 56.3973C85.219 57.288 86.5751 59.2486 88.3889 58.4972C89.9949 57.8563 89.6391 55.826 90.1007 54.0456C90.2066 53.6155 90.1369 53.3332 90.3506 53.051V53.1206C90.8474 54.1171 91.349 55.0774 91.8096 56.0768C92.9149 57.821 94.8393 59.6387 96.4424 60.8469C97.2959 61.4916 97.972 62.594 99.041 62.9878V62.881H98.9705C98.754 62.5616 98.4374 62.4185 98.1532 62.1706C97.5105 61.5288 96.799 60.7449 96.3003 60.0335C94.8069 58.0375 93.4852 55.8279 92.3122 53.5478C91.7381 52.4416 91.2432 51.2324 90.7807 50.1281C90.5651 49.7018 90.5651 49.059 90.2075 48.8445C89.6716 49.6274 88.8905 50.3054 88.4996 51.2648C87.8215 52.7992 87.751 54.6864 87.4992 56.649L87.359 56.7177C86.2242 56.4325 85.8294 55.2586 85.3983 54.2621C84.3312 51.7311 84.1519 47.6686 85.0779 44.7486C85.3259 44.0019 86.3987 41.6502 85.9705 40.9388C85.7559 40.257 85.0426 39.8688 84.6516 39.3319C84.192 38.6568 83.6885 37.8023 83.368 37.0528C82.5136 35.0587 82.0835 32.8491 81.1632 30.856C80.7331 29.9272 79.9864 28.9659 79.3818 28.1105C78.7029 27.1492 77.9562 26.4722 77.4193 25.3326C77.2419 24.9406 76.993 24.2998 77.2781 23.8735C77.3477 23.5874 77.4927 23.4806 77.7769 23.4091C78.2384 23.019 79.5573 23.5149 80.0198 23.7295C81.3406 24.2635 82.4449 24.7623 83.5473 25.5099C84.0461 25.8676 84.5811 26.5446 85.221 26.723H85.9705C87.1082 26.9709 88.3908 26.7916 89.4618 27.114C91.349 27.7205 93.0589 28.6102 94.5923 29.5705C99.2585 32.5297 103.106 36.7342 105.704 41.7561C106.13 42.5743 106.312 43.3239 106.701 44.1774C107.451 45.9244 108.379 47.7058 109.124 49.4157C109.872 51.0893 110.586 52.7982 111.655 54.1886C112.188 54.9363 114.33 55.3282 115.29 55.7202C116.001 56.0397 117.107 56.3238 117.748 56.7158C118.96 57.4625 120.167 58.3198 121.307 59.1409C121.874 59.5681 123.657 60.4588 123.763 61.1721ZM87.4239 30.2133C86.932 30.2082 86.4417 30.2685 85.9657 30.3926V30.4641H86.0344C86.3215 31.0334 86.8202 31.4282 87.1759 31.9251C87.463 32.4963 87.7119 33.0627 87.9932 33.633L88.0618 33.5624C88.5644 33.2067 88.8143 32.6365 88.8143 31.7811C88.5978 31.5293 88.5644 31.2833 88.3842 31.0334C88.1744 30.6767 87.7119 30.4994 87.4239 30.2133Z" fill="#5D87A1"/>
<path d="M127.156 100.529H127.894V96.9162H126.787L125.884 99.3814L124.902 96.9162H123.836V100.529H124.533V97.7802H124.572L125.6 100.529H126.131L127.156 97.7802V100.529ZM121.21 100.529H121.991V97.5285H123.013V96.9153H120.145V97.5285H121.208L121.21 100.529Z" fill="#F8981D"/>
</svg>
