<svg width="128" height="128" viewBox="0 0 128 128" fill="none" xmlns="http://www.w3.org/2000/svg">
<path fill-rule="evenodd" clip-rule="evenodd" d="M64 128C99.3462 128 128 99.3462 128 64C128 28.6538 99.3462 0 64 0C28.6538 0 0 28.6538 0 64C0 99.3462 28.6538 128 64 128ZM7.55015 46.5178H5V79.6672H7.04012L7.13286 49.0249L28.1832 79.6672L42.7153 99L7.55015 46.5178ZM32.843 46.5178H55.0989V48.2821H34.8832V61.5604H53.8934V63.3246H34.8832V77.903H55.3307V79.6672H32.843V46.5178ZM59.4574 46.5178H57.0927L68.6843 62.6282L56.2581 79.6672H58.6691L69.9362 64.1603L81.1568 79.6672H83.6143L71.2808 62.6282L95.215 28L80.6468 46.5178L69.9362 61.0961L59.4574 46.5178ZM84.4952 48.2821V46.5178H109.858V48.2821H98.1733V79.6672H96.1332V48.2821H84.4952ZM112.748 75.428H111.657C111.657 76.657 112.545 77.4597 113.84 77.4597C115.22 77.4597 116.053 76.6322 116.053 75.1951V70.1357H114.942V75.1902C114.942 75.988 114.54 76.4141 113.83 76.4141C113.195 76.4141 112.763 76.0177 112.748 75.428ZM109.652 77.3705C109.235 77.3705 108.923 77.0484 108.923 76.6322C108.923 76.2159 109.235 75.8938 109.652 75.8938C110.074 75.8938 110.382 76.2159 110.382 76.6322C110.382 77.0484 110.074 77.3705 109.652 77.3705ZM118.609 75.3636H117.507C117.586 76.6421 118.653 77.4597 120.241 77.4597C121.938 77.4597 123 76.6025 123 75.2348C123 74.1595 122.395 73.5648 120.926 73.2229L120.137 73.0296C119.204 72.8116 118.827 72.5192 118.827 72.0088C118.827 71.3646 119.412 70.9434 120.291 70.9434C121.124 70.9434 121.7 71.3547 121.804 72.0138H122.886C122.821 70.8096 121.759 69.9622 120.306 69.9622C118.743 69.9622 117.701 70.8096 117.701 72.0831C117.701 73.1337 118.291 73.7581 119.586 74.0603L120.509 74.2833C121.457 74.5063 121.874 74.8334 121.874 75.3785C121.874 76.0128 121.219 76.4736 120.325 76.4736C119.368 76.4736 118.703 76.0425 118.609 75.3636Z" fill="black"/>
<path d="M5 46.5178H7.55015L42.7153 99L28.1832 79.6672L7.13286 49.0249L7.04012 79.6672H5V46.5178Z" fill="white"/>
<path d="M57.0927 46.5178H59.4574L69.9362 61.0961L80.6468 46.5178L95.215 28L71.2808 62.6282L83.6143 79.6672H81.1568L69.9362 64.1603L58.6691 79.6672H56.2581L68.6843 62.6282L57.0927 46.5178Z" fill="white"/>
<path d="M32.843 46.5178H55.0989V48.2821H34.8832V61.5604H53.8934V63.3246H34.8832V77.903H55.3307V79.6672H32.843V46.5178Z" fill="white"/>
<path d="M84.4952 48.2821V46.5178H109.858V48.2821H98.1733V79.6672H96.1332V48.2821H84.4952Z" fill="white"/>
<path d="M111.657 75.428H112.748C112.763 76.0177 113.195 76.4141 113.83 76.4141C114.54 76.4141 114.942 75.988 114.942 75.1902V70.1357H116.053V75.1951C116.053 76.6322 115.22 77.4597 113.84 77.4597C112.545 77.4597 111.657 76.657 111.657 75.428Z" fill="white"/>
<path d="M109.652 77.3705C109.235 77.3705 108.923 77.0484 108.923 76.6322C108.923 76.2159 109.235 75.8938 109.652 75.8938C110.074 75.8938 110.382 76.2159 110.382 76.6322C110.382 77.0484 110.074 77.3705 109.652 77.3705Z" fill="white"/>
<path d="M117.507 75.3636H118.609C118.703 76.0425 119.368 76.4736 120.325 76.4736C121.219 76.4736 121.874 76.0128 121.874 75.3785C121.874 74.8334 121.457 74.5063 120.509 74.2833L119.586 74.0603C118.291 73.7581 117.701 73.1337 117.701 72.0831C117.701 70.8096 118.743 69.9622 120.306 69.9622C121.759 69.9622 122.821 70.8096 122.886 72.0138H121.804C121.7 71.3547 121.124 70.9434 120.291 70.9434C119.412 70.9434 118.827 71.3646 118.827 72.0088C118.827 72.5192 119.204 72.8116 120.137 73.0296L120.926 73.2229C122.395 73.5648 123 74.1595 123 75.2348C123 76.6025 121.938 77.4597 120.241 77.4597C118.653 77.4597 117.586 76.6421 117.507 75.3636Z" fill="white"/>
</svg>
