<svg width="128" height="128" viewBox="0 0 128 128" fill="none" xmlns="http://www.w3.org/2000/svg">
<path d="M64 97.55C99.3462 97.55 128 82.4844 128 63.9C128 45.3156 99.3462 30.25 64 30.25C28.6538 30.25 0 45.3156 0 63.9C0 82.4844 28.6538 97.55 64 97.55Z" fill="url(#paint0_radial_3206_120)"/>
<path d="M64 95.05C97.9655 95.05 125.5 81.1037 125.5 63.9C125.5 46.6963 97.9655 32.75 64 32.75C30.0345 32.75 2.5 46.6963 2.5 63.9C2.5 81.1037 30.0345 95.05 64 95.05Z" fill="#6181B6"/>
<path d="M76.45 74L79.5 58.3C80.2 54.75 79.6 52.1 77.8 50.45C76.05 48.85 73.05 48.05 68.65 48.05H63.35L64.85 40.25C64.9 39.95 64.85 39.65 64.65 39.4C64.45 39.15 64.2 39.05 63.9 39.05H56.6C56.1 39.05 55.7 39.4 55.6 39.85L52.35 56.5C52.05 54.6 51.35 53 50.15 51.7C48 49.25 44.65 48 40.1 48H26.05C25.55 48 25.15 48.35 25.05 48.8L18.5 82.6C18.45 82.9 18.5 83.2001 18.7 83.4501C18.9 83.7001 19.15 83.8 19.45 83.8H26.8C27.3 83.8 27.7 83.45 27.8 83L29.4 74.85H34.85C37.7 74.85 40.15 74.5501 42 73.9501C43.95 73.3001 45.7 72.25 47.25 70.8C48.5 69.65 49.55 68.3501 50.35 66.9501L49.05 73.7001C49 74.0001 49.05 74.3 49.25 74.55C49.45 74.8 49.7 74.9001 50 74.9001H57.3C57.8 74.9001 58.2 74.55 58.3 74.1L61.9 55.6H66.9C69.05 55.6 69.65 56.0001 69.85 56.2001C70 56.3501 70.3 56.95 69.95 58.8L67.05 73.75C67 74.05 67.05 74.35 67.25 74.6C67.45 74.85 67.7 74.9501 68 74.9501H75.5C75.95 74.8001 76.35 74.45 76.45 74ZM42.65 61C42.2 63.35 41.35 65.05 40.1 66C38.85 66.95 36.8 67.4501 34.1 67.4501H30.85L33.2 55.35H37.4C40.5 55.35 41.75 56 42.25 56.55C42.9 57.35 43.05 58.9 42.65 61Z" fill="white"/>
<path d="M107.65 51.7C105.5 49.25 102.15 48 97.5999 48H83.4499C82.9499 48 82.5499 48.35 82.4499 48.8L75.8999 82.55C75.8499 82.85 75.8999 83.15 76.0999 83.4C76.2999 83.65 76.5499 83.75 76.8499 83.75H84.1999C84.6999 83.75 85.0999 83.4 85.1999 82.95L86.7999 74.8H92.2499C95.0999 74.8 97.5499 74.5 99.3999 73.9C101.35 73.25 103.1 72.2 104.65 70.75C105.95 69.55 107.05 68.2 107.85 66.75C108.65 65.3 109.25 63.7 109.6 61.95C110.45 57.6 109.8 54.2 107.65 51.7ZM99.9999 61C99.5499 63.35 98.6999 65.05 97.4499 66C96.1999 66.95 94.1499 67.45 91.4499 67.45H88.1999L90.5499 55.35H94.7499C97.8499 55.35 99.0999 56 99.5999 56.55C100.3 57.35 100.45 58.9 99.9999 61Z" fill="white"/>
<path d="M37.4 54.35C40.2 54.35 42.05 54.85 43 55.9C43.95 56.95 44.15 58.7 43.65 61.2C43.15 63.8 42.15 65.7 40.7 66.8C39.25 67.9 37.05 68.45 34.1 68.45H29.65L32.4 54.35H37.4ZM19.5 82.75H26.85L28.6 73.8H34.9C37.7 73.8 39.95 73.5 41.75 72.9C43.55 72.3 45.15 71.35 46.65 69.95C47.9 68.8 48.9 67.55 49.65 66.2C50.4 64.85 50.95 63.35 51.25 61.7C52.05 57.7 51.45 54.6 49.5 52.35C47.55 50.1 44.45 49 40.2 49H26.05L19.5 82.75Z" fill="#000004"/>
<path d="M56.6501 40.05H63.9501L62.2001 49H68.7001C72.8001 49 75.6001 49.7 77.1501 51.15C78.7001 52.6 79.1501 54.9 78.5501 58.1L75.5001 73.8H68.1001L71.0001 58.85C71.3501 57.15 71.2001 56 70.6501 55.4C70.1001 54.8 68.8501 54.45 67.0001 54.45H61.1501L57.4001 73.8H50.1001L56.6501 40.05Z" fill="#000004"/>
<path d="M94.7501 54.35C97.5501 54.35 99.4001 54.85 100.35 55.9C101.3 56.95 101.5 58.7 101 61.2C100.5 63.8 99.5001 65.7 98.0501 66.8C96.6001 67.9 94.4001 68.45 91.4501 68.45H87.0001L89.7501 54.35H94.7501ZM76.8501 82.75H84.2001L85.9501 73.8H92.2501C95.0501 73.8 97.3001 73.5 99.1001 72.9C100.9 72.3 102.5 71.35 104 69.95C105.25 68.8 106.25 67.55 107 66.2C107.75 64.85 108.3 63.35 108.6 61.7C109.4 57.7 108.8 54.6 106.85 52.35C104.9 50.1 101.8 49 97.5501 49H83.4001L76.8501 82.75Z" fill="#000004"/>
<defs>
<radialGradient id="paint0_radial_3206_120" cx="0" cy="0" r="1" gradientUnits="userSpaceOnUse" gradientTransform="translate(38.4259 42.0839) scale(84.0476 84.0476)">
<stop stop-color="white"/>
<stop offset="0.5" stop-color="#4C6B97"/>
<stop offset="1" stop-color="#231F20"/>
</radialGradient>
</defs>
</svg>
