<svg width="128" height="128" viewBox="0 0 128 128" fill="none" xmlns="http://www.w3.org/2000/svg">
<g clip-path="url(#clip0_3206_104)">
<path fill-rule="evenodd" clip-rule="evenodd" d="M50.361 0C40.3171 0 32.1751 7.88362 32.1751 17.6086V29.7992H63.6507V33.1854H18.1859C8.14209 33.1854 0 41.0691 0 50.794V77.207C0 86.9318 8.14209 94.8153 18.1859 94.8153H28.6778V79.916C28.6778 70.1911 36.8199 62.3072 46.8639 62.3072H80.4376C88.9364 62.3072 95.8256 55.6365 95.8256 47.4079V17.6086C95.8256 7.88362 87.6838 0 77.6399 0H50.361ZM46.1644 21.6721C49.641 21.6721 52.4593 18.9431 52.4593 15.5768C52.4593 12.2105 49.641 9.48153 46.1644 9.48153C42.6874 9.48153 39.8691 12.2105 39.8691 15.5768C39.8691 18.9431 42.6874 21.6721 46.1644 21.6721Z" fill="url(#paint0_linear_3206_104)"/>
<path fill-rule="evenodd" clip-rule="evenodd" d="M77.6389 128.001C87.6829 128.001 95.8251 120.117 95.8251 110.392V98.2016H64.3492V94.8156H109.814C119.858 94.8156 128 86.9316 128 77.2067V50.7937C128 41.0689 119.858 33.1853 109.814 33.1853H99.3223V48.0847C99.3223 57.81 91.18 65.6935 81.1365 65.6935H47.5624C39.0636 65.6935 32.1743 72.3642 32.1743 80.5928V110.392C32.1743 120.117 40.3166 128.001 50.3601 128.001H77.6389ZM81.836 106.329C78.3589 106.329 75.5406 109.057 75.5406 112.424C75.5406 115.79 78.3589 118.519 81.836 118.519C85.3126 118.519 88.1309 115.79 88.1309 112.424C88.1309 109.057 85.3126 106.329 81.836 106.329Z" fill="url(#paint1_linear_3206_104)"/>
</g>
<defs>
<linearGradient id="paint0_linear_3206_104" x1="47.913" y1="0" x2="47.913" y2="94.8153" gradientUnits="userSpaceOnUse">
<stop stop-color="#327EBD"/>
<stop offset="1" stop-color="#1565A7"/>
</linearGradient>
<linearGradient id="paint1_linear_3206_104" x1="80.0874" y1="33.1853" x2="80.0874" y2="128.001" gradientUnits="userSpaceOnUse">
<stop stop-color="#FFDA4B"/>
<stop offset="1" stop-color="#F9C600"/>
</linearGradient>
<clipPath id="clip0_3206_104">
<rect width="128" height="128" fill="white"/>
</clipPath>
</defs>
</svg>
