<svg width="128" height="128" viewBox="0 0 128 128" fill="none" xmlns="http://www.w3.org/2000/svg">
<path d="M75.4293 64.3639C75.4293 58.2437 70.3123 53.2816 63.9993 53.2816C57.6872 53.2816 52.5693 58.2437 52.5693 64.3639C52.5693 70.4848 57.6872 75.4465 63.9993 75.4465C70.3123 75.4465 75.4293 70.4848 75.4293 64.3639Z" fill="#53C1DE"/>
<path fill-rule="evenodd" clip-rule="evenodd" d="M101.122 43.7891C103.535 34.2791 106.569 16.6436 95.8737 10.6647C85.228 4.71178 71.3745 16.1186 64.0593 22.9656C56.7654 16.1869 42.5229 4.82877 31.8363 10.8267C21.1947 16.7996 24.4763 34.1426 26.9436 43.7123C17.0168 46.446 0 52.334 0 64.3638C0 76.3596 16.9991 82.7655 26.8671 85.4966C24.3907 95.1192 21.2734 112.215 31.9286 118.174C42.6551 124.171 56.8533 113.083 64.2364 106.161C71.5985 113.049 85.3188 124.209 95.9667 118.233C106.648 112.238 103.866 94.8385 101.399 85.2133C110.964 82.4763 128 76.2098 128 64.3638C128 52.4496 110.892 46.5138 101.122 43.7891ZM99.9091 80.1125C98.2891 75.1402 96.1024 69.8525 93.4276 64.3903C95.9808 59.057 98.0826 53.8375 99.6574 48.8972C106.82 50.9106 122.532 55.5122 122.532 64.3638C122.532 73.2987 107.454 77.9438 99.9091 80.1125ZM93.2267 113.644C85.2821 118.103 73.481 107.43 68.0439 102.359C71.651 98.5334 75.2555 94.0867 78.7733 89.1489C84.9617 88.6169 90.8075 87.7464 96.1092 86.5582C97.8458 93.3665 101.206 109.166 93.2267 113.644ZM34.6608 113.581C26.7154 109.139 30.347 93.8836 32.1688 86.7954C37.4116 87.9201 43.2154 88.7291 49.4182 89.2167C52.9592 94.0483 56.6682 98.4895 60.4058 102.379C55.788 106.71 42.6432 118.043 34.6608 113.581ZM5.46769 64.3638C5.46769 55.3957 21.0862 50.8274 28.4119 48.8191C30.0139 53.8704 32.115 59.1521 34.6506 64.4931C32.0821 69.9135 29.951 75.2788 28.3343 80.3899C21.3491 78.4511 5.46769 73.3375 5.46769 64.3638ZM34.5758 15.4151C42.5536 10.9377 54.9321 21.8419 60.2278 26.7499C56.5094 30.6215 52.8346 35.0292 49.3239 39.8331C43.3041 40.3741 37.5413 41.2428 32.2436 42.4067C30.256 34.6884 26.6066 19.8876 34.5758 15.4151ZM82.685 45.5956C86.7691 46.0953 90.682 46.76 94.3561 47.5732C93.2531 51.0011 91.8784 54.5855 90.2592 58.2599C87.9121 53.9421 85.3926 49.7108 82.685 45.5956ZM64.061 30.5386C66.583 33.1876 69.1089 36.1458 71.5938 39.3552C66.5536 39.1239 61.5053 39.1231 56.4651 39.3518C58.9521 36.1722 61.4997 33.2184 64.061 30.5386ZM37.7877 58.2561C36.1954 54.5945 34.833 50.9942 33.7204 47.5173C37.3725 46.725 41.2672 46.0773 45.3248 45.5858C42.6095 49.692 40.0943 53.9216 37.7877 58.2561ZM45.4413 83.5203C41.2497 83.0668 37.296 82.4519 33.6451 81.6814C34.7752 78.1435 36.1676 74.4656 37.794 70.725C40.1323 75.1047 42.6859 79.3752 45.4413 83.5203ZM64.2125 98.5637C61.6209 95.8523 59.0357 92.8532 56.5111 89.6276C61.5799 89.8205 66.6586 89.8209 71.7269 89.6016C69.2344 92.8861 66.7174 95.8894 64.2125 98.5637ZM90.3113 70.5347C92.0222 74.3158 93.4643 77.9736 94.6099 81.4518C90.8984 82.2732 86.8915 82.9345 82.6697 83.4256C85.3973 79.2323 87.9569 74.9354 90.3113 70.5347ZM75.7218 84.0682C67.9684 84.6053 60.1668 84.5994 52.4109 84.1121C48.0038 77.8704 44.0806 71.3061 40.6942 64.4914C44.0644 57.6908 47.959 51.1393 52.3452 44.9074C60.1067 44.3387 67.916 44.337 75.6774 44.9108C80.026 51.1423 83.9147 57.6767 87.363 64.4159C83.9556 71.2131 80.0405 77.7778 75.7218 84.0682ZM93.1426 15.2575C101.123 19.7202 97.5706 35.5696 95.8272 42.4618C90.5169 41.2735 84.7501 40.3894 78.7127 39.8399C75.1953 34.9842 71.5511 30.5688 67.8929 26.7472C73.2565 21.7335 85.2399 10.8385 93.1426 15.2575Z" fill="#53C1DE"/>
</svg>
