<svg width="128" height="128" viewBox="0 0 128 128" fill="none" xmlns="http://www.w3.org/2000/svg">
<path fill-rule="evenodd" clip-rule="evenodd" d="M55.5372 42.3844H55.8428C58.226 42.3844 60.4406 43.3796 61.9851 45H49.6292C51.115 43.4518 53.1952 42.4588 55.5372 42.3844Z" fill="#764ABC"/>
<path fill-rule="evenodd" clip-rule="evenodd" d="M87.1472 86.224C89.5415 85.9803 91.6233 84.7712 93.0065 83H79.5173C79.7073 83.2374 79.9096 83.4615 80.1228 83.6712C74.9308 93.7304 66.99 101.087 55.0792 107.242C46.9856 111.446 38.5872 112.948 30.1886 111.897C23.3167 110.996 17.972 107.994 14.612 103.038C10.3877 96.6785 9.47312 89.8695 11.9672 83H4.97268C2.56882 92.6313 4.93262 101.667 8.65704 107.242C13.6961 114.749 23.9275 119.404 35.2276 119.404C38.2816 119.404 41.3356 119.103 44.39 118.353C63.9364 114.599 78.7488 103.189 87.1472 86.224ZM36.4492 88.7756C36.602 93.2796 40.4196 96.8824 45.0008 96.8824H45.3064C50.04 96.7328 53.7048 92.8292 53.552 88.1752C53.4852 86.2012 52.7144 84.4003 51.484 83H36.7027C36.9702 83.478 37.242 83.952 37.518 84.422C36.7548 85.4728 36.2964 87.124 36.4492 88.7756ZM28.3436 45C28.8358 40.7871 29.8289 36.5003 31.4097 32.1755C36.4492 17.7627 49.1236 8.00392 62.8676 8.00392C77.5268 8.00392 92.7972 20.6153 94.63 44.9368H87C86.5416 36.9796 79.6648 14.9096 63.4784 15.2101C57.6752 15.3598 49.1236 18.0622 44.6956 23.6172C39.7278 29.6177 36.7387 36.7855 35.8517 45H28.3436Z" fill="#764ABC"/>
<path fill-rule="evenodd" clip-rule="evenodd" d="M93.8664 113.098C103.334 113.098 110.511 108.744 114.787 100.787C117.4 95.7904 117.667 89.9797 115.456 84C115.341 83.6907 115.22 83.3809 115.092 83.0708H122.721C122.808 83.3812 122.891 83.6909 122.969 84C124.918 91.714 123.949 98.9851 121.354 104.09C117.23 112.046 106.388 120.004 91.7284 120.004C85.3148 120.004 78.596 118.352 72.0292 115.35C74.1672 113.848 77.2216 111.446 78.9012 109.945C81.9556 111.296 87.758 113.098 93.8664 113.098Z" fill="#764ABC"/>
<path d="M6.216 56.308V52.636H24.936V56.308H16.746L17.7 55.336V76H13.452V55.336L14.406 56.308H6.216ZM32.0795 76.504C30.4835 76.504 29.0375 76.162 27.7415 75.478C26.4575 74.794 25.4375 73.774 24.6815 72.418C23.9255 71.05 23.5475 69.34 23.5475 67.288C23.5475 65.2 23.9255 63.472 24.6815 62.104C25.4375 60.736 26.4575 59.716 27.7415 59.044C29.0375 58.372 30.4835 58.036 32.0795 58.036C33.6515 58.036 35.0735 58.372 36.3455 59.044C37.6295 59.716 38.6495 60.736 39.4055 62.104C40.1615 63.472 40.5395 65.2 40.5395 67.288C40.5395 69.34 40.1615 71.05 39.4055 72.418C38.6495 73.774 37.6295 74.794 36.3455 75.478C35.0735 76.162 33.6515 76.504 32.0795 76.504ZM31.9355 72.796C32.7755 72.796 33.5195 72.592 34.1675 72.184C34.8275 71.764 35.3435 71.146 35.7155 70.33C36.0995 69.514 36.2915 68.5 36.2915 67.288C36.2915 65.44 35.9255 64.048 35.1935 63.112C34.4735 62.176 33.4835 61.708 32.2235 61.708C31.3715 61.708 30.6155 61.918 29.9555 62.338C29.2955 62.746 28.7735 63.364 28.3895 64.192C28.0175 65.02 27.8315 66.052 27.8315 67.288C27.8315 69.112 28.1975 70.486 28.9295 71.41C29.6735 72.334 30.6755 72.796 31.9355 72.796ZM52.4701 76.504C50.8741 76.504 49.4281 76.162 48.1321 75.478C46.8481 74.794 45.8281 73.774 45.0721 72.418C44.3161 71.05 43.9381 69.34 43.9381 67.288C43.9381 65.2 44.3161 63.472 45.0721 62.104C45.8281 60.736 46.8481 59.716 48.1321 59.044C49.4281 58.372 50.8741 58.036 52.4701 58.036C54.0421 58.036 55.4641 58.372 56.7361 59.044C58.0201 59.716 59.0401 60.736 59.7961 62.104C60.5521 63.472 60.9301 65.2 60.9301 67.288C60.9301 69.34 60.5521 71.05 59.7961 72.418C59.0401 73.774 58.0201 74.794 56.7361 75.478C55.4641 76.162 54.0421 76.504 52.4701 76.504ZM52.3261 72.796C53.1661 72.796 53.9101 72.592 54.5581 72.184C55.2181 71.764 55.7341 71.146 56.1061 70.33C56.4901 69.514 56.6821 68.5 56.6821 67.288C56.6821 65.44 56.3161 64.048 55.5841 63.112C54.8641 62.176 53.8741 61.708 52.6141 61.708C51.7621 61.708 51.0061 61.918 50.3461 62.338C49.6861 62.746 49.1641 63.364 48.7801 64.192C48.4081 65.02 48.2221 66.052 48.2221 67.288C48.2221 69.112 48.5881 70.486 49.3201 71.41C50.0641 72.334 51.0661 72.796 52.3261 72.796ZM65.9847 76V51.304H70.2327V76H65.9847ZM76.9535 76V51.304H81.2015V76H76.9535ZM80.6255 65.164L88.1135 58.54H93.8735L80.6255 69.556V65.164ZM89.1215 76L81.3095 64.876L85.3415 63.904L94.3055 76H89.1215ZM100.742 55.336C99.9142 55.336 99.2662 55.12 98.7982 54.688C98.3422 54.244 98.1142 53.632 98.1142 52.852C98.1142 52.096 98.3422 51.496 98.7982 51.052C99.2662 50.596 99.9142 50.368 100.742 50.368C101.558 50.368 102.2 50.596 102.668 51.052C103.136 51.496 103.37 52.096 103.37 52.852C103.37 53.632 103.136 54.244 102.668 54.688C102.2 55.12 101.558 55.336 100.742 55.336ZM98.6182 76V58.468H102.866V76H98.6182ZM115.975 76.504C114.943 76.504 113.995 76.312 113.131 75.928C112.279 75.544 111.595 74.956 111.079 74.164C110.575 73.372 110.323 72.364 110.323 71.14V53.896H114.571V70.996C114.571 72.436 115.255 73.156 116.623 73.156C117.043 73.156 117.463 73.108 117.883 73.012C118.303 72.916 118.783 72.772 119.323 72.58L119.935 75.568C119.263 75.832 118.609 76.054 117.973 76.234C117.337 76.414 116.671 76.504 115.975 76.504ZM107.875 61.348V58.54H119.323V61.348H107.875Z" fill="#764ABC"/>
</svg>
