<svg width="128" height="128" viewBox="0 0 128 128" fill="none" xmlns="http://www.w3.org/2000/svg">
<path d="M87.1472 86.224C91.5756 85.7732 94.9352 82.02 94.7824 77.5156C94.63 73.012 90.812 69.4088 86.2308 69.4088H85.9256C81.1912 69.5588 77.5268 73.4624 77.6796 78.1164C77.8324 80.3684 78.7484 82.32 80.1228 83.6712C74.9308 93.7304 66.99 101.087 55.0792 107.242C46.9856 111.446 38.5872 112.948 30.1886 111.897C23.3167 110.996 17.972 107.994 14.612 103.038C9.72576 95.682 9.2678 87.7248 13.3909 79.768C16.2925 74.0628 20.8731 69.8588 23.7747 67.7568C23.1639 65.8052 22.2475 62.5024 21.7895 60.1004C-0.352821 75.8644 1.93796 97.1836 8.65704 107.242C13.6961 114.749 23.9275 119.404 35.2276 119.404C38.2816 119.404 41.3356 119.103 44.39 118.353C63.9364 114.599 78.7488 103.189 87.1472 86.224ZM114.024 67.6072C102.418 54.2452 85.3148 46.8888 65.7684 46.8888H63.3256C61.9512 44.1864 59.0496 42.3844 55.8428 42.3844H55.5372C50.8036 42.5348 47.1392 46.438 47.2916 51.0924C47.4444 55.5964 51.2616 59.1996 55.8428 59.1996H56.148C59.5076 59.0496 62.4092 56.9476 63.6308 54.0948H66.3792C77.9852 54.0948 88.9796 57.3976 98.906 63.8536C106.541 68.808 112.038 75.264 115.092 83.0708C117.688 89.3764 117.536 95.532 114.787 100.787C110.511 108.744 103.334 113.098 93.8664 113.098C87.758 113.098 81.9556 111.296 78.9012 109.945C77.2216 111.446 74.1672 113.848 72.0292 115.35C78.596 118.352 85.3148 120.004 91.7284 120.004C106.388 120.004 117.23 112.046 121.354 104.09C125.782 95.3816 125.476 80.3684 114.024 67.6072ZM36.4492 88.7756C36.602 93.2796 40.4196 96.8824 45.0008 96.8824H45.3064C50.04 96.7328 53.7048 92.8292 53.552 88.1752C53.3996 83.6708 49.5816 80.068 45.0008 80.068H44.6956C44.39 80.068 43.9316 80.068 43.6268 80.2176C37.3656 70.0088 34.7697 58.8992 35.6861 46.8884C36.2964 37.8802 39.3508 30.0731 44.6956 23.6172C49.1236 18.0622 57.6752 15.3598 63.4784 15.2101C79.6648 14.9096 86.536 34.7272 86.9944 42.6844C88.9796 43.1348 92.3392 44.186 94.63 44.9368C92.7972 20.6153 77.5268 8.00392 62.8676 8.00392C49.1236 8.00392 36.4492 17.7627 31.4097 32.1755C24.3855 51.3924 28.9666 69.8588 37.518 84.422C36.7548 85.4728 36.2964 87.124 36.4492 88.7756Z" fill="#764ABC"/>
</svg>
