<svg width="128" height="128" viewBox="0 0 128 128" fill="none" xmlns="http://www.w3.org/2000/svg">
<g clip-path="url(#clip0_3202_32)">
<g clip-path="url(#clip1_3202_32)">
<path d="M127.945 82.0175C127.577 79.0375 126.067 76.4525 123.445 74.325C123.412 74.2853 123.376 74.2485 123.337 74.215L123.205 74.12L123.162 74.09L121.77 73.09L121.722 73.055L121.545 72.93C121.48 72.892 121.41 72.8626 121.337 72.8425C116.932 70.22 109.64 68.3825 98.4823 72.32C95.8198 67.84 95.5173 64.25 97.2998 58.75C97.6173 57.7925 97.3223 57.16 96.3723 56.75C94.4623 55.9375 91.8473 56.3525 89.9923 56.8425C89.1273 57.0675 88.6073 57.5575 88.4423 58.3C87.2673 63.8 83.8523 68.825 80.5498 73.675L80.3548 73.96C78.3198 69.645 78.7423 66.3025 80.1598 62.115C80.4423 61.28 80.2198 60.725 79.4373 60.31C77.2523 59.1825 73.9748 59.9575 72.6698 60.3425C71.0148 60.825 69.2398 65.2975 67.2573 70.6525C66.7573 72 66.3273 73.1525 66.0698 73.69C65.4573 74.94 64.8723 76.365 64.2523 77.8775C62.8523 81.3 61.2748 85.1525 59.0198 87.5725C58.1998 85.76 59.4898 82.9025 60.7423 80.13C62.2248 76.8525 63.6248 73.755 62.0123 71.7775C61.7573 71.4648 61.441 71.2077 61.0828 71.022C60.7247 70.8362 60.3323 70.7258 59.9298 70.6975C59.4047 70.6575 58.8777 70.7432 58.3923 70.9475C58.5598 69.535 58.5673 68.42 58.1548 67.0725C57.5648 65.15 56.0323 64.0725 53.9223 64.13C49.1173 64.27 45.0523 67.85 42.4848 70.83C40.7748 72.83 36.9848 74.355 33.6573 75.6925C32.3423 76.25 31.0923 76.75 30.0498 77.25C28.3873 75.845 26.2748 74.4275 24.0498 72.93C17.7998 68.735 10.7173 63.9775 10.4723 57.5275C10.1223 48 20.9723 41.2425 30.4423 36.42C37.6198 32.77 43.8598 30.35 49.5198 29.0275C57.4698 27.17 64.1848 27.545 69.4748 30.1375C72.3698 31.555 73.7248 34.6375 72.8648 37.8075C70.6148 46.045 61.2923 51.69 53.3198 54.23C48.5173 55.76 44.4298 56.4 40.8198 56.19C36.2948 55.9275 32.5998 53.6575 31.0198 52.69C30.7667 52.5171 30.499 52.3665 30.2198 52.24L30.1473 52.2225C30.0042 52.1869 29.8541 52.1914 29.7135 52.2355C29.5728 52.2796 29.447 52.3616 29.3498 52.4725C29.0248 52.86 29.1398 53.4725 29.2573 53.7825C30.7948 57.8 33.9698 60.3375 38.6923 61.325C40.2379 61.6345 41.8111 61.7844 43.3873 61.7725C54.4398 61.7725 68.5423 55.4 73.7223 50.1525C77.2548 46.5775 79.8273 42.9025 80.8923 36.565C82.0048 29.9275 77.5048 25.315 72.9198 23.19C61.7773 18.0475 49.1223 20.08 40.4673 22.69C30.3423 25.7425 19.8673 31.2925 11.7323 37.9225C1.70232 46.09 -1.92269 53.6725 0.952315 60.485C3.90481 67.4675 11.1048 71.835 18.0673 76.06C20.3173 77.4225 22.4573 78.72 24.3848 80.06C23.8048 80.3425 23.2123 80.63 22.6098 80.9175C16.7648 83.75 10.1348 86.9375 6.45731 92.205C3.78731 96.0425 3.28731 99.8625 4.97231 103.56C5.87231 105.527 7.47231 106.862 9.69481 107.527C10.8509 107.855 12.0483 108.014 13.2498 108C17.5773 108 22.3398 106.25 24.9323 104.632C29.5123 101.757 32.4798 97.8975 33.7548 93.16C34.8898 88.945 34.6173 84.7575 32.9673 81.02L38.5798 78.19C35.8723 87.19 37.9473 92.565 40.2273 95.53C41.0673 96.6225 42.5823 97.28 44.2748 97.31C45.9673 97.34 47.5248 96.7025 48.4048 95.6175C50.0698 93.555 51.2998 91.1425 52.4323 88.73C52.3723 90.305 52.4473 91.9 52.9848 93.2525C53.4673 94.47 54.2623 95.2775 55.2873 95.5875C56.3773 95.92 57.6548 95.64 58.8848 94.8C64.4273 91.0075 68.2173 81.905 71.2623 74.5875C71.6948 73.5475 72.1098 72.5475 72.5123 71.6125C73.2657 74.3085 74.3136 76.9134 75.6373 79.38C75.9323 79.915 75.9073 80.15 75.5073 80.59C74.9048 81.25 74.0648 82.0475 73.1748 82.8925C70.4798 85.45 67.1248 88.6425 66.6748 91.45C66.4998 92.575 67.2748 93.6 68.4773 93.8325C72.0948 94.5525 76.4523 93.5 80.1373 91.02C83.4873 88.77 84.7473 85.6325 83.8873 81.7225C83.0548 77.9575 84.9548 73.2825 89.5348 67.8175C90.2848 70.95 91.2848 73.4825 92.6648 75.7L92.6273 75.73C89.2923 78.6425 84.7223 82.63 85.4323 87.4675C85.4919 87.9275 85.6467 88.3701 85.8869 88.767C86.1271 89.1639 86.4474 89.5063 86.8273 89.7725C87.2334 90.0466 87.6917 90.2339 88.1735 90.3225C88.6554 90.4111 89.1503 90.3992 89.6273 90.2875C93.9948 89.37 97.2823 87.5225 99.6723 84.645C102.062 81.7675 101.19 78.5775 100.385 76.1025C106.635 74.4075 112.2 74.45 117.41 76.2275C120.335 77.2275 122.432 78.87 123.642 81.1375C125.165 83.99 124.342 86.6225 121.32 88.55C120.392 89.1425 119.945 89.505 119.917 89.9625C119.911 90.0686 119.931 90.1747 119.974 90.2717C120.018 90.3688 120.084 90.4539 120.167 90.52C120.517 90.8075 121.597 91.3075 124.04 89.77C126.29 88.3575 127.61 86.435 127.947 84.02C128.015 83.3541 128.014 82.6831 127.945 82.0175ZM28.0123 88.2825L27.9873 88.6025C27.5973 92.2625 25.7373 95.4525 22.4498 98.1025C20.3848 99.7675 18.1423 100.79 16.1373 100.985C14.7373 101.12 13.7198 100.93 13.1148 100.417C12.6623 100.035 12.4198 99.4625 12.3648 98.6675C11.9548 92.2975 21.9448 85.9675 27.5673 83.885C27.9686 85.3141 28.1191 86.8019 28.0123 88.2825ZM53.5998 70.3175C52.6748 75.59 49.9773 85.5425 45.7373 89.405C45.5348 89.59 45.3648 89.655 45.2873 89.6375C45.2098 89.62 45.1498 89.5275 45.0873 89.3875C43.6723 86.1075 44.1948 80.5675 46.3373 76.215C47.9848 72.86 50.3373 70.6375 52.9673 69.965C53.0765 69.9348 53.1891 69.9189 53.3023 69.9175C53.3909 69.9112 53.4789 69.935 53.5523 69.985C53.5833 70.0339 53.6035 70.0888 53.6117 70.1461C53.6199 70.2034 53.6158 70.2618 53.5998 70.3175ZM74.4723 89.5375C73.6748 90.37 72.5823 90.2575 72.8398 89.9525L76.8998 85.6425C76.5723 87.125 75.6048 88.3525 74.4723 89.5375ZM91.3148 85.81C90.9287 86.0002 90.5109 86.118 90.0823 86.1575C89.9673 83.89 92.1648 81.3375 94.3323 79.635C94.9148 82 93.7223 84.5 91.3148 85.81Z" fill="#D0659B"/>
</g>
</g>
<defs>
<clipPath id="clip0_3202_32">
<rect width="128" height="128" fill="white"/>
</clipPath>
<clipPath id="clip1_3202_32">
<rect width="128" height="128" fill="white"/>
</clipPath>
</defs>
</svg>
