<svg width="128" height="128" viewBox="0 0 128 128" fill="none" xmlns="http://www.w3.org/2000/svg">
<path d="M66.6037 76.432C64.4027 77.4433 61.9912 78.7611 57.1636 81.4106C55.3332 82.4402 53.4205 83.4697 51.6405 84.4398C51.5169 84.3163 51.3888 84.1607 51.2652 84.0326C41.7153 73.8283 24.0523 66.6212 24.8027 52.9163C25.0818 47.924 26.7978 34.8186 58.724 18.9036C84.9989 5.95372 105.906 9.54124 109.517 17.4988C114.706 28.8425 98.3102 49.9512 71.175 53.0124C68.1718 53.6216 65.0701 53.548 62.0992 52.7972C59.1282 52.0463 56.364 50.6374 54.0108 48.6745C52.5739 47.1141 52.3589 47.0226 51.8281 47.3337C50.9541 47.7913 51.5169 49.2053 51.8281 50.0152C52.8631 51.8893 54.2635 53.5368 55.9462 54.8603C57.6289 56.1839 59.56 57.1566 61.6251 57.7211C72.3035 60.0291 83.4371 58.9263 93.4552 54.5683C109.901 48.2032 122.741 30.5081 118.98 15.673C115.205 0.63193 90.2383 -4.32836 66.6174 4.06387C51.8248 9.04884 38.1577 16.8961 26.3951 27.1585C13.3812 39.3305 11.3221 49.91 12.164 54.3395C15.1933 70.0669 36.874 80.3032 45.5682 87.8855C45.1106 88.1372 44.7262 88.3431 44.3831 88.5399C40.0451 90.6951 23.5077 99.339 19.3848 108.482C14.7037 118.842 20.1353 126.268 23.7228 127.266C29.1292 128.561 34.805 128.135 39.9578 126.048C45.1105 123.961 49.4828 120.317 52.4641 115.625C54.9959 111.734 56.5505 107.289 56.9958 102.668C57.4412 98.0473 56.7641 93.3873 55.0221 89.0844C56.0498 88.2646 57.146 87.5343 58.2984 86.9017C60.5132 85.593 62.6227 84.3026 64.4942 83.305C70.9022 80.3035 77.8953 78.758 84.9714 78.7794C99.8249 80.5274 102.758 89.7936 102.195 93.6969C101.932 95.0818 101.375 96.3941 100.562 97.5457C99.749 98.6973 98.6988 99.6614 97.482 100.373C96.4524 101.028 96.1092 101.247 96.2007 101.714C96.3243 102.4 96.823 102.368 97.697 102.245C99.9287 101.539 101.895 100.176 103.337 98.3323C104.779 96.4891 105.63 94.2526 105.778 91.9169C106.236 82.765 97.5094 72.7255 82.0611 72.817C77.4355 72.825 72.856 73.7374 68.5805 75.5031C67.8941 75.7868 67.2276 76.0918 66.5808 76.4183L66.6037 76.432ZM44.5249 112.303C39.5921 117.67 32.7282 119.697 29.763 117.981C26.5599 116.151 27.8274 108.212 33.8813 102.533C37.4668 99.3024 41.3422 96.4089 45.4584 93.8891C46.1768 93.4315 47.2384 92.8275 48.5151 92.0587C48.7348 91.9352 48.8583 91.8711 48.8583 91.8711L49.6088 91.4135C50.6885 95.0336 50.7867 98.8755 49.8934 102.546C49.0001 106.216 47.1474 109.584 44.5249 112.303Z" fill="#CD6799"/>
</svg>
