<svg width="128" height="128" viewBox="0 0 128 128" fill="none" xmlns="http://www.w3.org/2000/svg">
<g clip-path="url(#clip0_3207_168)">
<path d="M48.6298 63.011C46.9246 63.011 45.5381 63.5157 44.4751 64.5248C43.4121 65.5347 42.8729 66.8585 42.8729 68.4806C42.8729 69.3212 43.0068 70.0877 43.2707 70.79C43.5345 71.4937 43.9452 72.1457 44.4972 72.7347C45.0492 73.3244 46.1542 74.1253 47.8011 75.1436C49.8218 76.3772 51.1443 77.3784 51.779 78.1602C52.4141 78.9412 52.7292 79.7598 52.7292 80.6132C52.7292 81.7558 52.3531 82.6679 51.5801 83.3535C50.8057 84.0395 49.7701 84.3811 48.4861 84.3811C47.1319 84.3811 45.9522 83.9038 44.9392 82.9557C43.9261 82.0063 43.4148 80.7506 43.4033 79.1767H42.7734V84.8894H43.4033C43.5955 84.3485 43.8616 84.0718 44.2099 84.0718C44.3774 84.0718 44.7699 84.1873 45.3812 84.4033C46.8685 84.9324 48.0897 85.1878 49.0497 85.1878C50.704 85.1878 52.1162 84.6084 53.2928 83.4309C54.4676 82.2539 55.0607 80.8342 55.0607 79.1767C55.0607 77.8915 54.6691 76.748 53.9005 75.7513C53.1319 74.7534 51.6371 73.5926 49.4033 72.2596C47.4811 71.1047 46.2333 70.1641 45.6574 69.4309C45.0806 68.6987 44.7845 67.8887 44.7845 66.9999C44.7845 66.0386 45.1376 65.2665 45.8342 64.6905C46.5308 64.1142 47.4435 63.8287 48.5856 63.8287C49.8709 63.8287 50.9423 64.2101 51.79 64.9778C52.6369 65.7469 53.1266 66.8126 53.2707 68.1823H53.9005V63.232H53.3149C53.2433 63.4844 53.177 63.6457 53.116 63.7182C53.0568 63.7902 52.9427 63.8287 52.7734 63.8287C52.5697 63.8287 52.2064 63.7429 51.6906 63.5745C50.5856 63.2024 49.5668 63.011 48.6298 63.011ZM69.2154 63.011C67.1376 63.011 65.2512 63.5007 63.5469 64.4806C61.84 65.4587 60.4888 66.817 59.4917 68.5469C58.495 70.2767 58 72.1139 58 74.0718C58 76.7021 58.861 79.0455 60.5966 81.0994C62.3332 83.152 64.4141 84.4311 66.8287 84.9226C67.3807 85.2102 68.1706 85.9528 69.2044 87.1546C70.3695 88.511 71.3551 89.4892 72.1657 90.0718C72.9754 90.6546 73.8497 91.0818 74.7734 91.3646C75.6981 91.6462 76.6979 91.7845 77.779 91.7845C79.0881 91.7845 80.2603 91.5569 81.2928 91.0883L81.0607 90.5137C80.4614 90.7299 79.8223 90.8342 79.1491 90.8342C78.2355 90.8342 77.3122 90.5329 76.3867 89.9281C75.4625 89.3218 74.3067 88.165 72.9281 86.4585C72.2802 85.6408 71.8329 85.1249 71.5801 84.9226C74.2218 84.4067 76.3942 83.1263 78.0884 81.0773C79.7821 79.0291 80.6298 76.6916 80.6298 74.0718C80.6298 70.9611 79.5231 68.3468 77.3259 66.2154C75.127 64.0838 72.4229 63.011 69.2154 63.011ZM82.0663 63.011L82.0994 63.685C83.4828 63.685 84.2576 64.0925 84.4309 64.9115C84.4954 65.2046 84.525 65.7457 84.5303 66.5248L84.5193 81.4309C84.5078 82.5442 84.3491 83.255 84.0442 83.5635C83.7387 83.8698 83.2225 84.0616 82.4751 84.1381L82.442 84.8121H96.232L96.5856 81.4309H95.9558C95.7759 82.352 95.3635 83.0118 94.7072 83.3867C94.049 83.7643 92.8853 83.9502 91.2044 83.9502H89.9005C88.388 83.9502 87.5129 83.4034 87.2817 82.3038C87.234 82.0863 87.2177 81.853 87.2154 81.5966L87.2707 66.5248C87.2703 65.4133 87.4108 64.6684 87.7016 64.3038C87.9956 63.9405 88.5255 63.7372 89.2928 63.685L89.2597 63.011H82.0663ZM69.4364 63.8287C71.7798 63.8287 73.6932 64.7516 75.1712 66.6132C76.6488 68.4754 77.3812 71.0277 77.3812 74.2596C77.3812 77.3221 76.6382 79.7743 75.1491 81.6187C73.6601 83.4626 71.6782 84.3811 69.2154 84.3811C66.8495 84.3811 64.9308 83.434 63.4585 81.5303C61.9876 79.6267 61.2596 77.1552 61.2596 74.116C61.2596 70.9929 61.9964 68.4928 63.4806 66.6242C64.9639 64.7576 66.9502 63.8287 69.4364 63.8287ZM101.149 67.0331C100.813 67.0331 100.556 67.1467 100.365 67.3756C100.168 67.6037 100.108 67.8799 100.177 68.2154C100.243 68.5408 100.426 68.8261 100.718 69.0662C101.008 69.3062 101.321 69.4309 101.657 69.4309C101.983 69.4309 102.231 69.3062 102.409 69.0662C102.587 68.8261 102.641 68.5408 102.575 68.2154C102.506 67.8799 102.329 67.6037 102.055 67.3756C101.779 67.1467 101.474 67.0331 101.149 67.0331ZM110.243 69.3204C109.672 71.5189 108.433 72.7087 106.53 72.9005L106.552 73.5303H108.773L108.729 80.9778C108.733 82.2511 108.772 83.0989 108.862 83.5303C109.081 84.5633 109.755 85.0883 110.884 85.0883C112.517 85.0883 114.23 84.0935 116.022 82.1049L115.481 81.6408C114.187 82.9504 113.043 83.6077 112.044 83.6077C111.43 83.6077 111.05 83.2546 110.906 82.5579C110.867 82.3888 110.851 82.1911 110.851 81.9613L110.873 73.5303H114.265L114.232 72.5248H110.884V69.3204H110.243ZM123.359 72.127C121.462 72.127 119.918 73.0481 118.718 74.8784C117.524 76.7118 117.155 78.743 117.624 80.9778C117.901 82.2869 118.451 83.3014 119.293 84.0165C120.133 84.7313 121.2 85.0883 122.475 85.0883C123.662 85.0883 125.315 84.7877 126.011 84.1823C126.708 83.5771 127.351 82.5968 127.945 81.2541L127.47 80.7568C126.523 82.4987 124.612 83.3756 123.171 83.3756C121.19 83.3756 119.977 82.2888 119.525 80.127C119.466 79.8511 119.422 79.5546 119.392 79.243C121.749 78.8699 123.535 78.2092 124.74 77.2541C125.945 76.2985 127.154 75.2855 126.928 74.2154C126.794 73.5795 126.464 73.0795 125.956 72.7016C125.441 72.3238 124.106 72.127 123.359 72.127ZM102.619 72.2044L98.5303 73.1436V73.8729L99.9447 73.6961C100.63 73.6961 101.033 74.0063 101.16 74.6242C101.203 74.8311 101.23 75.1215 101.238 75.4861L101.193 82.1712C101.182 83.0963 101.079 83.6341 100.873 83.7955C100.665 83.9573 100.116 84.0386 99.2265 84.0386L99.2044 84.6684H105.691L105.68 84.0386C104.778 84.0386 104.194 83.9675 103.934 83.8287C103.678 83.6907 103.501 83.4397 103.425 83.0552C103.367 82.7781 103.341 82.3007 103.337 81.6408L103.359 72.2044H102.619ZM122.32 73.4419C122.715 73.4419 123.097 73.5944 123.481 73.895C123.859 74.1945 124.09 74.5276 124.166 74.8894C124.536 76.6667 122.96 77.8954 119.414 78.58C119.313 77.2841 119.538 76.1076 120.11 75.0441C120.679 73.9816 121.419 73.4419 122.32 73.4419Z" fill="#003B57"/>
<path d="M39.4719 37.488H4.28747C1.92937 37.488 0 39.4178 0 41.7758V80.5776C0 82.9355 1.92937 84.8649 4.28747 84.8649H27.4609C27.1978 73.3346 31.1353 50.9578 39.4719 37.488Z" fill="#0F80CC"/>
<path d="M38.1936 38.7388H4.28744C2.61305 38.7388 1.25049 40.101 1.25049 41.7757V77.7466C8.92952 74.7994 20.4548 72.2564 28.4238 72.3719C30.0252 63.9985 34.7317 47.5885 38.1936 38.7388Z" fill="url(#paint0_linear_3207_168)"/>
<path d="M47.6787 36.2181C45.2689 34.0692 42.3514 34.9324 39.4718 37.4879C39.0444 37.8676 38.6179 38.2888 38.1936 38.7388C33.2676 43.9644 28.6952 53.644 27.2747 61.0362C27.828 62.1584 28.2603 63.5905 28.5449 64.6844C28.6179 64.9651 28.6837 65.2285 28.7363 65.4526C28.8614 65.9829 28.9286 66.3268 28.9286 66.3268C28.9286 66.3268 28.8844 66.1597 28.7032 65.6342C28.6687 65.5335 28.6303 65.4234 28.5847 65.2939C28.5653 65.2404 28.5383 65.1755 28.5087 65.1061C28.1874 64.3591 27.2985 62.7825 26.9074 62.0961C26.5728 63.0831 26.2771 64.0064 26.0296 64.8418C27.1589 66.908 27.847 70.4489 27.847 70.4489C27.847 70.4489 27.7874 70.2194 27.5036 69.4185C27.2517 68.7101 25.9969 66.5116 25.6996 65.9976C25.1912 67.8746 24.9891 69.1419 25.1713 69.4505C25.5251 70.0483 25.8619 71.08 26.1578 72.2208C26.8261 74.7909 27.2906 77.9197 27.2906 77.9197C27.2906 77.9197 27.3056 78.1271 27.3308 78.4461C27.238 80.6045 27.2937 82.8422 27.4607 84.8648C27.6822 87.5423 28.099 89.8424 28.6303 91.0734L28.9909 90.8767C28.2108 88.4515 27.8939 85.2731 28.0327 81.6077C28.2426 76.005 29.5319 69.2484 31.9142 62.2062C35.939 51.5755 41.5231 43.046 46.6338 38.9726C41.9757 43.1794 35.6711 56.7967 33.7838 61.8393C31.6707 67.4862 30.1732 72.7852 29.2707 77.8622C30.8278 73.1026 35.8625 71.0567 35.8625 71.0567C35.8625 71.0567 38.3319 68.0112 41.2177 63.6603C39.489 64.0546 36.6506 64.7295 35.6999 65.1291C34.2974 65.7173 33.9195 65.918 33.9195 65.918C33.9195 65.918 38.4623 63.1516 42.3598 61.899C47.7198 53.457 53.5593 41.4641 47.6787 36.2181Z" fill="#003B57"/>
</g>
<defs>
<linearGradient id="paint0_linear_3207_168" x1="2131.45" y1="118.566" x2="2131.45" y2="3722.59" gradientUnits="userSpaceOnUse">
<stop stop-color="#97D9F6"/>
<stop offset="0.920245" stop-color="#0F80CC"/>
<stop offset="1" stop-color="#0F80CC"/>
</linearGradient>
<clipPath id="clip0_3207_168">
<rect width="128" height="57" fill="white" transform="translate(0 35)"/>
</clipPath>
</defs>
</svg>
